<svg width="91" height="90" viewBox="0 0 91 90" fill="none" xmlns="http://www.w3.org/2000/svg">
<rect opacity="0.1" x="1.12109" width="89.3785" height="90" rx="24" fill="#05719C"/>
<mask id="mask0_1835_39493" style="mask-type:alpha" maskUnits="userSpaceOnUse" x="0" y="0" width="90" height="90">
<rect opacity="0.41" x="0.5" width="89.3785" height="90" rx="24" fill="#05719C"/>
</mask>
<g mask="url(#mask0_1835_39493)">
<g opacity="0.3">
<path d="M102.718 -10.3168C102.718 -10.3168 119.737 6.23928 89.1003 39.4689C58.464 72.6985 95.9008 101.891 95.9008 101.891" stroke="#05719C"/>
<path d="M88.9921 -10.317C88.9921 -10.317 106.012 6.23969 75.3789 39.4687C44.7455 72.6977 82.1846 101.891 82.1846 101.891" stroke="#05719C"/>
<path d="M76.0175 -10.8629C76.0175 -10.8629 93.0377 5.69379 62.4043 38.9228C31.7708 72.1518 69.21 101.345 69.21 101.345" stroke="#05719C"/>
<path d="M62.3993 -10.8629C62.3993 -10.8629 79.4195 5.69379 48.7861 38.9228C18.1527 72.1518 55.5919 101.345 55.5919 101.345" stroke="#05719C"/>
<path d="M48.3514 -10.317C48.3514 -10.317 65.3717 6.23969 34.7383 39.4687C4.10483 72.6977 41.544 101.891 41.544 101.891" stroke="#05719C"/>
<path d="M34.6259 -10.317C34.6259 -10.317 51.6461 6.23969 21.0127 39.4687C-9.62075 72.6977 27.8184 101.891 27.8184 101.891" stroke="#05719C"/>
<path d="M21.6513 -10.8629C21.6513 -10.8629 38.6715 5.69379 8.03806 38.9228C-22.5954 72.1518 14.8438 101.345 14.8438 101.345" stroke="#05719C"/>
<path d="M8.03309 -10.8629C8.03309 -10.8629 25.0533 5.69379 -5.58011 38.9228C-36.2135 72.1518 1.22566 101.345 1.22566 101.345" stroke="#05719C"/>
</g>
</g>
<rect x="25.3623" y="25" width="40" height="40" rx="20" fill="white"/>
<path opacity="0.4" d="M54.3086 48.5933L48.4419 38.0333C47.6536 36.6125 46.5628 35.8333 45.3619 35.8333C44.1611 35.8333 43.0703 36.6125 42.2819 38.0333L36.4153 48.5933C35.6728 49.9408 35.5903 51.2333 36.1861 52.2508C36.7819 53.2683 37.9553 53.8275 39.4953 53.8275H51.2286C52.7686 53.8275 53.9419 53.2683 54.5378 52.2508C55.1336 51.2333 55.0511 49.9317 54.3086 48.5933Z" fill="#ECAE52"/>
<path d="M45.3623 47.5208C44.9865 47.5208 44.6748 47.2092 44.6748 46.8333V42.25C44.6748 41.8742 44.9865 41.5625 45.3623 41.5625C45.7381 41.5625 46.0498 41.8742 46.0498 42.25V46.8333C46.0498 47.2092 45.7381 47.5208 45.3623 47.5208Z" fill="#ECAE52"/>
<path d="M45.362 50.5C45.307 50.5 45.2428 50.4908 45.1786 50.4817C45.1236 50.4725 45.0686 50.4542 45.0136 50.4267C44.9586 50.4083 44.9036 50.3808 44.8486 50.3442C44.8028 50.3075 44.757 50.2708 44.7111 50.2342C44.5461 50.06 44.4453 49.8217 44.4453 49.5833C44.4453 49.345 44.5461 49.1067 44.7111 48.9325C44.757 48.8958 44.8028 48.8592 44.8486 48.8225C44.9036 48.7858 44.9586 48.7583 45.0136 48.74C45.0686 48.7125 45.1236 48.6942 45.1786 48.685C45.2978 48.6575 45.4261 48.6575 45.5361 48.685C45.6003 48.6942 45.6553 48.7125 45.7103 48.74C45.7653 48.7583 45.8203 48.7858 45.8753 48.8225C45.9211 48.8592 45.967 48.8958 46.0128 48.9325C46.1778 49.1067 46.2786 49.345 46.2786 49.5833C46.2786 49.8217 46.1778 50.06 46.0128 50.2342C45.967 50.2708 45.9211 50.3075 45.8753 50.3442C45.8203 50.3808 45.7653 50.4083 45.7103 50.4267C45.6553 50.4542 45.6003 50.4725 45.5361 50.4817C45.4811 50.4908 45.417 50.5 45.362 50.5Z" fill="#ECAE52"/>
</svg>
