<svg width="129" height="104" viewBox="0 0 129 104" fill="none" xmlns="http://www.w3.org/2000/svg">
<path d="M87.5133 49.5243C89.6483 51.7256 93.6149 52.6956 95.7056 52.9605C95.8534 52.9792 95.9054 53.1728 95.7855 53.2619L90.2845 57.3492C90.2666 57.3625 90.2459 57.372 90.2242 57.3769C86.1512 58.2926 82.3539 54.2083 80.8471 51.888C80.7897 51.7995 80.8324 51.6822 80.9319 51.6486L87.3437 49.4826C87.4035 49.4624 87.4692 49.4789 87.5133 49.5243Z" stroke="black" stroke-width="0.766444" stroke-linecap="round"/>
<path d="M84.4126 52.8217C85.0648 52.6967 86.4833 52.3075 86.9399 51.7504" stroke="black" stroke-width="0.766444" stroke-linecap="round"/>
<path d="M86.1416 54.294C86.5554 54.3072 87.5072 54.1116 88.0038 53.2234" stroke="black" stroke-width="0.766444" stroke-linecap="round"/>
<path d="M88.1372 55.3659C88.7429 55.2849 90.0431 54.8234 90.3984 53.6251" stroke="black" stroke-width="0.766444" stroke-linecap="round"/>
<path d="M61.7876 49.1808C62.0758 49.0914 62.8384 49.0067 63.5833 49.3816" stroke="black" stroke-width="1.27741" stroke-linecap="round"/>
<path d="M59.1274 52.6623C59.6416 52.6623 60.0585 52.2127 60.0585 51.658C60.0585 51.1034 59.6416 50.6537 59.1274 50.6537C58.6132 50.6537 58.1963 51.1034 58.1963 51.658C58.1963 52.2127 58.6132 52.6623 59.1274 52.6623Z" fill="black"/>
<path d="M66.7089 54.0014C67.2232 54.0014 67.64 53.5518 67.64 52.9971C67.64 52.4424 67.2232 51.9928 66.7089 51.9928C66.1947 51.9928 65.7778 52.4424 65.7778 52.9971C65.7778 53.5518 66.1947 54.0014 66.7089 54.0014Z" fill="black"/>
<path d="M56.8657 50.0512C56.9322 49.6271 57.3446 48.8193 58.4619 48.9799" stroke="black" stroke-width="1.27741" stroke-linecap="round"/>
<path d="M65.3789 49.9173C65.911 49.4486 67.2411 48.7925 68.3052 49.9173" stroke="black" stroke-width="1.27741" stroke-linecap="round"/>
<path d="M62.5192 51.0555C63.14 52.0821 64.0089 54.2826 62.5192 54.8718L61.7876 55.1396" stroke="black" stroke-width="1.27741" stroke-linecap="round"/>
<path d="M59.9917 57.2151C60.1469 57.6392 60.7366 58.34 61.8539 57.7508" stroke="black" stroke-width="1.27741" stroke-linecap="round"/>
<path d="M38.5764 47.373C36.395 54.604 42.4559 59.8487 45.7592 61.5671C48.7387 59.746 52.9862 58.822 54.8041 58.5542C52.5429 56.6795 51.8556 53.2425 51.6783 51.658C50.4812 52.0597 47.2888 50.5198 48.752 47.373C49.9225 44.8556 51.1905 46.1455 51.6783 47.1052L54.9371 48.5782C54.9371 45.5251 57.0209 44.494 58.063 44.3601C58.7015 43.9316 59.3931 42.53 59.6592 41.8829C59.9784 44.4003 63.2505 46.2348 64.8467 46.8374C66.9217 45.177 68.5932 46.1455 69.1697 46.8374L70.6328 46.6365C73.4926 45.6546 78.627 42.298 76.2859 36.7275C73.9449 31.157 69.1032 32.1747 66.9749 33.3798C59.6858 28.5056 52.3654 35.6339 49.6166 39.8073C46.8454 39.3163 40.7578 40.1421 38.5764 47.373Z" fill="black"/>
<path d="M54.8706 48.6452L51.6782 46.9714" stroke="black" stroke-width="1.27741" stroke-linecap="round"/>
<path d="M61.7207 48.5113C61.7207 50.8205 60.153 52.5954 58.3289 52.5954C56.5047 52.5954 54.937 50.8205 54.937 48.5113C54.937 46.2019 56.5047 44.4271 58.3289 44.4271C60.153 44.4271 61.7207 46.2019 61.7207 48.5113Z" stroke="black" stroke-width="1.27741"/>
<path d="M70.5 49.9842C70.5 52.2934 68.9323 54.0684 67.1082 54.0684C65.284 54.0684 63.7163 52.2934 63.7163 49.9842C63.7163 47.6749 65.284 45.9001 67.1082 45.9001C68.9323 45.9001 70.5 47.6749 70.5 49.9842Z" stroke="black" stroke-width="1.27741"/>
<path d="M70.6331 62.8908C75.7408 58.7665 72.8278 53.205 70.6996 50.9062C69.529 56.4767 66.8201 58.8736 65.645 59.4092L67.5072 60.4135L70.6331 62.8908Z" fill="black"/>
<path d="M52.0774 48.5113C51.9666 47.2838 50.5478 44.3602 49.0181 47.1053C48.353 48.355 47.8742 51.0287 51.2794 51.725" stroke="black" stroke-width="1.27741" stroke-linecap="round"/>
<path d="M50.9466 48.0426C50.6363 48.3104 50.1751 49.0067 50.8136 49.6495" stroke="black" stroke-width="1.27741" stroke-linecap="round"/>
<path d="M70.2338 51.5242C69.8613 53.6667 69.0365 55.6074 68.1719 56.8135C67.6314 57.5676 66.7555 58.5196 65.6387 59.3494" stroke="black" stroke-width="1.27741" stroke-linecap="round"/>
<path d="M51.6117 51.725C51.5674 54.4478 52.6227 58.4873 57.4644 60.6298C58.2092 60.9593 58.9414 61.1484 59.6531 61.2246" stroke="black" stroke-width="1.27741" stroke-linecap="round"/>
<path d="M61.1887 93.8385L59.7256 82.6574C65.3122 76.9262 74.2906 77.7698 78.0815 78.908L80.9413 84.599C82.1164 86.6522 85.3574 91.5487 88.9222 94.7089C88.9222 95.3115 86.6344 95.981 77.483 93.8385C68.3316 91.696 62.5854 97.0075 60.8562 99.9312" stroke="black" stroke-width="1.27741" stroke-linecap="round"/>
<path d="M87.3925 95.5123L86.4614 98.3913L64.0485 101.404C63.1839 102.141 61.0955 103.172 59.659 101.404C58.2224 99.6366 37.2461 100.668 26.9375 101.404" stroke="black" stroke-width="1.27741" stroke-linecap="round"/>
<path d="M62.7186 99.9313C58.7726 96.048 47.0229 89.9553 31.5933 96.6506" stroke="black" stroke-width="1.27741" stroke-linecap="round"/>
<path d="M34.4531 85.7372L31.5933 96.5836" stroke="black" stroke-width="1.27741" stroke-linecap="round"/>
<path d="M31.593 83.3269L26.9375 101.404" stroke="black" stroke-width="1.27741" stroke-linecap="round"/>
<path d="M26.9375 101.389L31.593 96.5682" stroke="black" stroke-width="1.27741" stroke-linecap="round"/>
<path d="M59.6592 82.3895C57.7812 79.6471 51.2148 75.0474 39.9731 78.5871" stroke="black" stroke-width="1.27741" stroke-linecap="round"/>
<path d="M65.3789 99.2617C66.1549 98.1681 68.6511 96.0881 72.4287 96.5166" stroke="black" stroke-width="1.27741" stroke-linecap="round"/>
<path d="M65.1792 63.9105C64.115 63.6427 63.0954 64.5131 62.7184 64.9817C62.5189 65.4058 62.4258 66.2404 63.6495 66.1869C65.1792 66.1199 65.6447 63.9105 67.4404 67.459C68.8769 70.2978 68.9701 75.8727 68.837 78.3054" stroke="black" stroke-width="1.27741" stroke-linecap="round" stroke-linejoin="round"/>
<path d="M61.6978 63.174C61.3508 63.9329 61.0691 65.3567 62.7184 64.9817" stroke="black" stroke-width="1.27741" stroke-linecap="round" stroke-linejoin="round"/>
<path d="M62.3399 60.5628C61.4088 60.9645 60.0585 62.4107 60.5905 63.3748C60.657 63.4864 60.8566 63.6962 61.1226 63.6426C61.2391 63.6192 61.429 63.415 61.6981 63.174C62.1972 62.7269 62.9687 62.1531 64.0489 62.3705" stroke="black" stroke-width="1.27741" stroke-linecap="round" stroke-linejoin="round"/>
<path d="M81.0079 84.2642C81.673 80.9835 80.968 72.5742 72.8275 65.1826L67.4405 60.4289L64.0486 58.6212L63.3837 58.4873L60.8564 59.0899L60.5902 59.3577L59.7256 60.9646C59.5926 61.2993 60.1647 61.6877 61.1224 61.3663" stroke="black" stroke-width="1.27741" stroke-linecap="round" stroke-linejoin="round"/>
<path d="M54.6048 58.822C50.2818 59.4022 39.0594 61.8969 32.2584 72.0118C25.8487 81.5446 33.098 85.5618 38.4851 85.7626" stroke="black" stroke-width="1.27741" stroke-linecap="round" stroke-linejoin="round"/>
<path d="M1 85.7372L30.9947 84.2642" stroke="black" stroke-width="1.27741" stroke-linecap="round" stroke-linejoin="round"/>
<path d="M80.8086 84.1149L102.253 82.8428" stroke="black" stroke-width="1.27741" stroke-linecap="round"/>
<path d="M59.2603 6.46468C59.1938 5.92906 59.7971 4.4292 61.5215 4.79085C63.0512 5.11168 63.3837 6.79945 62.3196 7.80374C61.721 8.43131 60.9096 9.49096 61.1225 10.6158" stroke="black" stroke-width="1.27741" stroke-linecap="round"/>
<path d="M67.6402 6.59861C68.1191 2.63498 65.3125 2.35825 63.8493 2.71533C61.2954 -0.391296 59.0608 1.4209 58.2627 2.71533C54.3255 2.23326 53.9618 5.10333 54.2723 6.59861C51.5056 8.84823 53.1194 11.2407 54.2723 12.1557C53.687 16.0122 56.733 16.4853 58.3292 16.2399C60.6171 19.2394 62.9625 17.4004 63.8493 16.106C67.6269 16.588 67.9505 13.6733 67.6402 12.1557C70.7793 9.79897 68.9481 7.469 67.6402 6.59861Z" stroke="black" stroke-width="1.27741"/>
<path d="M60.6785 12.7924C60.8365 13.0847 61.2 13.1927 61.4904 13.0336C61.7807 12.8745 61.888 12.5086 61.73 12.2163C61.572 11.924 61.2085 11.816 60.9181 11.9751C60.6277 12.1342 60.5205 12.5001 60.6785 12.7924Z" fill="black"/>
<path opacity="0.4" d="M86.532 19.8158C86.4816 19.4133 86.9392 18.2863 88.2467 18.558C89.4066 18.799 89.6587 20.0674 88.8518 20.8221C88.398 21.2936 87.7828 22.0899 87.9441 22.9351" stroke="black" stroke-width="1.27741" stroke-linecap="round"/>
<path opacity="0.4" d="M92.9256 19.9281C93.2895 16.9378 91.1568 16.729 90.0449 16.9983C88.1042 14.6545 86.406 16.0217 85.7996 16.9983C82.8076 16.6346 82.5313 18.8 82.7673 19.9281C80.6649 21.6253 81.8913 23.4303 82.7673 24.1206C82.3225 27.0303 84.6372 27.3871 85.8502 27.2019C87.5887 29.4649 89.3711 28.0775 90.0449 27.101C92.9155 27.4647 93.1614 25.2656 92.9256 24.1206C95.3111 22.3426 93.9196 20.5848 92.9256 19.9281Z" stroke="black" stroke-width="1.27741"/>
<path opacity="0.4" d="M87.6593 24.5866C87.7789 24.808 88.0541 24.8897 88.274 24.7693C88.4939 24.6488 88.5751 24.3717 88.4554 24.1504C88.3358 23.9291 88.0605 23.8473 87.8407 23.9678C87.6208 24.0882 87.5396 24.3653 87.6593 24.5866Z" fill="black"/>
<path opacity="0.3" d="M28.9358 23.7309C28.8997 23.4382 29.2265 22.6186 30.1606 22.8162C30.989 22.9915 31.1691 23.914 30.5927 24.4627C30.2686 24.8058 29.8291 25.3848 29.9444 25.9996" stroke="black" stroke-width="1.27741" stroke-linecap="round"/>
<path opacity="0.3" d="M33.5631 23.8452C33.8274 21.6732 32.2783 21.5215 31.4708 21.7173C30.0612 20.0149 28.8279 21.0078 28.3874 21.7173C26.2143 21.4531 26.0136 23.0258 26.1849 23.8452C24.6579 25.0779 25.5487 26.3889 26.1849 26.8903C25.862 29.0035 27.5431 29.2628 28.4241 29.1283C29.6868 30.7719 30.9814 29.7642 31.4708 29.0549C33.5558 29.319 33.7344 27.7219 33.5631 26.8903C35.2957 25.5988 34.2851 24.3222 33.5631 23.8452Z" stroke="black" stroke-width="1.27741"/>
<path opacity="0.3" d="M29.7141 27.266C29.8012 27.427 30.0014 27.4865 30.1614 27.3988C30.3213 27.3112 30.3804 27.1096 30.2934 26.9486C30.2063 26.7876 30.0061 26.7281 29.8461 26.8157C29.6862 26.9034 29.6271 27.1049 29.7141 27.266Z" fill="black"/>
<path d="M22.7476 104L31.0609 84.2488L26.9375 101.389L40.1724 100.92L46.8231 100.719H53.4073L56.7992 100.853L59.7255 101.523L22.7476 104Z" fill="black"/>
<path d="M63.6494 86.5863C64.8245 84.5777 68.8237 81.0292 75.4212 82.9039" stroke="black" stroke-width="1.27741" stroke-linecap="round"/>
<path d="M64.98 91.1633C66.6871 88.5969 72.1228 84.4011 80.2101 88.1504" stroke="black" stroke-width="1.27741" stroke-linecap="round"/>
<path d="M58.4621 91.9993C54.9816 90.1246 46.0918 87.1653 38.377 90.3255" stroke="black" stroke-width="1.27741" stroke-linecap="round"/>
<path d="M56.9988 85.7218C55.8461 85.0523 52.9685 83.9141 50.6807 84.7175" stroke="black" stroke-width="1.27741" stroke-linecap="round"/>
<path d="M90.1489 60.6144L83.7642 60.8822" stroke="black" stroke-width="0.766444" stroke-linecap="round"/>
<path d="M90.2153 60.6144L98.5952 61.3509" stroke="black" stroke-width="0.766444" stroke-linecap="round"/>
<path d="M98.6617 61.3508L96.999 69.3183" stroke="black" stroke-width="0.766444" stroke-linecap="round"/>
<path d="M96.9989 69.3183L90.0156 70.5235" stroke="black" stroke-width="0.766444" stroke-linecap="round"/>
<path d="M90.0156 70.4565V62.0873" stroke="black" stroke-width="0.766444" stroke-linecap="round"/>
<path d="M90.0156 62.1543L98.595 61.4178" stroke="black" stroke-width="0.766444" stroke-linecap="round"/>
<path d="M90.0158 62.1543L83.7642 60.8822" stroke="black" stroke-width="0.766444" stroke-linecap="round"/>
<path d="M83.6313 60.8822L84.0304 67.1758" stroke="black" stroke-width="0.766444" stroke-linecap="round"/>
<path d="M84.0303 67.1758L90.0159 70.5234" stroke="black" stroke-width="0.766444" stroke-linecap="round"/>
<path d="M90.0825 60.6144V62.0204" stroke="black" stroke-width="0.766444" stroke-linecap="round"/>
<path d="M94.9663 64.0101L93.7992 64.0828C93.4794 64.1027 93.2362 64.3798 93.256 64.7017C93.2758 65.0236 93.551 65.2684 93.8708 65.2484L95.0379 65.1758C95.3577 65.1559 95.6008 64.8788 95.5811 64.5569C95.5613 64.235 95.286 63.9902 94.9663 64.0101Z" stroke="black" stroke-width="0.766444"/>
<path d="M90.0823 72.2642L83.7642 67.0419L90.0823 70.5904L97.4335 69.3183H98.4622L90.0823 72.2642Z" fill="black"/>
<path d="M109.843 76.6831L106.584 74.1389C105.946 73.6405 106.895 73.3956 107.449 73.3355L119.62 71.7955C121.149 71.9964 124.528 72.5052 125.805 72.9337C127.082 73.3622 126.692 73.7818 126.337 73.938C122.347 74.6745 113.98 76.268 112.437 76.7501C110.894 77.2321 110.065 76.9063 109.843 76.6831Z" stroke="black" stroke-width="1.27741" stroke-linecap="round"/>
<path d="M126.204 73.0676C126.67 73.2239 128.16 74.6343 127.468 77.9552C127.202 78.8256 126.47 79.3612 124.076 79.3612H111.639C111.063 79.4058 109.737 79.3211 109.045 78.6248C108.354 77.9284 106.939 76.4599 106.319 75.8127C106.186 75.6564 106.053 75.344 106.585 75.344" stroke="black" stroke-width="1.27741" stroke-linecap="round"/>
<path d="M106.584 75.3441V74.2059" stroke="black" stroke-width="1.27741" stroke-linecap="round"/>
<path d="M106.584 75.7458L109.311 77.8883C109.644 78.1561 110.242 78.6248 111.772 78.5578C113.275 78.4921 121.393 78.3346 125.273 78.4239C125.85 78.4372 126.603 78.1561 126.736 76.817C126.908 75.0836 126.603 74.005 125.938 74.005" stroke="black" stroke-width="1.27741" stroke-linecap="round"/>
<path d="M106.717 76.4822L104.19 76.6831C103.835 76.6831 103.139 76.8572 103.193 77.5535C103.246 78.2498 103.215 78.6471 103.193 78.7586C103.126 79.0934 103.459 79.3612 103.858 79.696L107.05 82.508" stroke="black" stroke-width="1.27741" stroke-linecap="round"/>
<path d="M107.383 79.2943L107.05 82.5081" stroke="black" stroke-width="1.27741" stroke-linecap="round"/>
<path d="M107.383 79.2943L103.792 76.9509" stroke="black" stroke-width="1.27741" stroke-linecap="round"/>
<path d="M107.316 79.3613L109.578 79.0934" stroke="black" stroke-width="1.27741" stroke-linecap="round"/>
<path d="M107.05 82.5081L125.805 82.9098" stroke="black" stroke-width="1.27741" stroke-linecap="round"/>
<path d="M125.939 79.2274L125.805 82.8428" stroke="black" stroke-width="1.27741" stroke-linecap="round"/>
<path d="M109.577 81.5038C109.798 81.5038 109.976 81.3239 109.976 81.102C109.976 80.8802 109.798 80.7003 109.577 80.7003C109.357 80.7003 109.178 80.8802 109.178 81.102C109.178 81.3239 109.357 81.5038 109.577 81.5038Z" fill="black"/>
<path d="M111.706 84.9853C111.926 84.9853 112.105 84.8055 112.105 84.5836C112.105 84.3617 111.926 84.1819 111.706 84.1819C111.485 84.1819 111.307 84.3617 111.307 84.5836C111.307 84.8055 111.485 84.9853 111.706 84.9853Z" fill="black"/>
<path d="M123.81 81.3698C124.031 81.3698 124.209 81.19 124.209 80.9681C124.209 80.7463 124.031 80.5664 123.81 80.5664C123.59 80.5664 123.411 80.7463 123.411 80.9681C123.411 81.19 123.59 81.3698 123.81 81.3698Z" fill="black"/>
<path d="M126.204 85.1192C126.425 85.1192 126.603 84.9394 126.603 84.7175C126.603 84.4957 126.425 84.3158 126.204 84.3158C125.984 84.3158 125.805 84.4957 125.805 84.7175C125.805 84.9394 125.984 85.1192 126.204 85.1192Z" fill="black"/>
<path d="M105.188 82.7759L108.447 85.9227C108.912 86.3914 110.11 86.5253 112.77 86.5253C115.232 86.5253 123.899 86.2798 127.933 86.3244" stroke="black" stroke-width="1.27741" stroke-linecap="round"/>
<path d="M128.001 82.9098L127.934 86.3244" stroke="black" stroke-width="1.27741" stroke-linecap="round"/>
<path d="M128 82.9097L125.938 81.9724" stroke="black" stroke-width="1.27741" stroke-linecap="round"/>
<path d="M105.587 81.236C105.609 81.6377 105.547 82.4947 105.122 82.7089" stroke="black" stroke-width="1.27741" stroke-linecap="round"/>
<path d="M109.178 82.7089C109.356 82.9098 109.577 83.5124 109.378 84.4497C109.222 85.1816 108.979 85.8557 108.447 85.7888" stroke="black" stroke-width="1.27741" stroke-linecap="round"/>
<path d="M128 82.9767L125.539 82.9098" stroke="black" stroke-width="1.27741" stroke-linecap="round"/>
<path d="M106.917 84.4497L103.991 86.1235" stroke="black" stroke-width="1.27741" stroke-linecap="round"/>
<path d="M103.991 86.1235C103.57 86.9493 102.913 89.2569 103.658 92.1493" stroke="black" stroke-width="1.27741" stroke-linecap="round"/>
<path d="M103.725 92.1493L118.955 93.1536C119.864 93.176 121.895 93.0197 122.746 92.2163C123.597 91.4128 125.207 89.6497 125.938 88.8686" stroke="black" stroke-width="1.27741" stroke-linecap="round"/>
<path d="M125.938 88.8686V86.86" stroke="black" stroke-width="1.27741" stroke-linecap="round"/>
<path d="M125.872 86.793L122.014 90.3415C121.859 90.52 121.27 90.8236 120.152 90.6093C119.035 90.3951 110.553 88.2884 106.452 87.2617C105.676 87.0832 104.39 87.1278 104.324 88.8016C104.235 89.5605 104.363 91.1048 105.587 91.2119C106.811 91.319 115.231 91.703 119.288 91.8815C120.396 91.9484 122.546 92.1493 124.808 90.0737" stroke="black" stroke-width="1.27741" stroke-linecap="round"/>
<path d="M41.3856 85.8655C41.4678 86.1222 41.4072 86.3067 41.0869 86.3344C40.1389 86.4162 39.0131 84.9368 38.5688 84.187" stroke="black" stroke-width="1.27741" stroke-linecap="round"/>
<path d="M41.3831 82.9598C41.8562 83.7208 42.6813 84.8934 43.4046 85.5587C43.3387 86.07 42.8424 86.8471 41.3855 85.8655C41.1636 85.1726 39.9019 83.9548 39.9019 83.8802" stroke="black" stroke-width="1.27741" stroke-linecap="round"/>
<path d="M42.6665 82.2441C43.5717 83.2496 45.2143 85.4039 44.5428 85.9765C44.4238 86.078 44.272 86.0878 44.0984 86.0283C43.8917 85.9575 43.6542 85.7884 43.4044 85.5587C42.681 84.8935 41.8559 83.7209 41.3828 82.9599" stroke="black" stroke-width="1.27741" stroke-linecap="round"/>
<path d="M35.2261 84.8647C36.7402 82.9558 41.5803 78.8184 44.3453 81.3238C45.4479 82.4316 46.8223 84.4339 46.0323 85.2519C45.6372 85.5587 44.7822 85.1496 44.2307 84.3316" stroke="black" stroke-width="1.27741" stroke-linecap="round"/>
<path d="M40.6201 73.9789C39.6668 74.7377 38.1726 76.7106 39.822 78.5317" stroke="black" stroke-width="1.27741" stroke-linecap="round"/>
</svg>
