<svg width="35" height="20" viewBox="0 0 35 20" fill="none" xmlns="http://www.w3.org/2000/svg">
<path d="M10.1199 11.7548L14.6314 4.56195H10.9329L8.34277 8.9121L10.1199 11.7548Z" fill="#262A2F"/>
<path d="M4.74509 6.16941L3.80615 4.56195H0L5.68861 13.6693V19.599H8.94742V13.4832L4.74509 6.16941Z" fill="#262A2F"/>
<path d="M27.2681 0V3.05208H31.7452V7.59996H34.7498V0H27.2681Z" fill="url(#paint0_linear_2485_17062)"/>
<path d="M26.4391 10.0936C26.6956 10.7008 26.8353 11.3731 26.8353 12.0803V12.1221C26.8353 14.6996 25.0169 16.8049 22.3948 16.8049C19.7726 16.8049 17.9108 14.6578 17.9108 12.0803V12.0361C17.9108 9.45854 19.7291 7.35325 22.3513 7.35325C23.3955 7.35325 24.3185 7.69522 25.0513 8.26748L27.3322 5.95051C26.0154 4.91996 24.3185 4.3035 22.3925 4.3035C17.8237 4.3035 14.5054 7.80455 14.5054 12.0803V12.1221C14.5054 16.3978 17.7825 19.857 22.3513 19.857C26.92 19.857 30.2384 16.356 30.2384 12.0803V12.0361C30.2384 10.3867 29.7506 8.85836 28.8872 7.60449L26.4391 10.0936Z" fill="#262A2F"/>
<defs>
<linearGradient id="paint0_linear_2485_17062" x1="26.9706" y1="1.28928" x2="36.2653" y2="1.47099" gradientUnits="userSpaceOnUse">
<stop stop-color="#FF9F11"/>
<stop offset="1" stop-color="#FFCC45"/>
</linearGradient>
</defs>
</svg>
