<svg width="295" height="295" viewBox="0 0 295 295" fill="none" xmlns="http://www.w3.org/2000/svg">
<rect width="295" height="295" rx="32" fill="#F3F7FA"/>
<path d="M21.148 37V27.284H22.464V37H21.148ZM22.044 37V35.796H27.616V37H22.044ZM22.044 32.604V31.456H27.154V32.604H22.044ZM22.044 28.488V27.284H27.546V28.488H22.044ZM29.1818 37V30.35H30.4418V37H29.1818ZM30.4418 33.206L29.9658 32.996C29.9658 32.1467 30.1618 31.47 30.5538 30.966C30.9458 30.462 31.5105 30.21 32.2478 30.21C32.5838 30.21 32.8871 30.2707 33.1578 30.392C33.4285 30.504 33.6805 30.6953 33.9138 30.966L33.0878 31.82C32.9478 31.6707 32.7938 31.5633 32.6258 31.498C32.4578 31.4327 32.2618 31.4 32.0378 31.4C31.5711 31.4 31.1885 31.5493 30.8898 31.848C30.5911 32.1467 30.4418 32.5993 30.4418 33.206ZM37.4102 37.14C36.8035 37.14 36.2529 36.9907 35.7582 36.692C35.2635 36.384 34.8715 35.9687 34.5822 35.446C34.3022 34.9233 34.1622 34.3353 34.1622 33.682C34.1622 33.0287 34.3022 32.4407 34.5822 31.918C34.8715 31.3953 35.2589 30.98 35.7442 30.672C36.2389 30.364 36.7942 30.21 37.4102 30.21C37.9142 30.21 38.3622 30.3173 38.7542 30.532C39.1555 30.7373 39.4775 31.0267 39.7202 31.4C39.9629 31.764 40.0982 32.1887 40.1262 32.674V34.676C40.0982 35.152 39.9629 35.5767 39.7202 35.95C39.4869 36.3233 39.1695 36.6173 38.7682 36.832C38.3762 37.0373 37.9235 37.14 37.4102 37.14ZM37.6202 35.95C38.2455 35.95 38.7495 35.74 39.1322 35.32C39.5149 34.8907 39.7062 34.3447 39.7062 33.682C39.7062 33.2247 39.6175 32.828 39.4402 32.492C39.2722 32.1467 39.0295 31.8807 38.7122 31.694C38.3949 31.498 38.0262 31.4 37.6062 31.4C37.1862 31.4 36.8129 31.498 36.4862 31.694C36.1689 31.89 35.9169 32.1607 35.7302 32.506C35.5529 32.842 35.4642 33.2293 35.4642 33.668C35.4642 34.116 35.5529 34.5127 35.7302 34.858C35.9169 35.194 36.1735 35.46 36.5002 35.656C36.8269 35.852 37.2002 35.95 37.6202 35.95ZM39.6222 37V35.208L39.8602 33.584L39.6222 31.974V30.35H40.8962V37H39.6222ZM43.7253 37V27.564H44.9853V37H43.7253ZM42.0873 31.498V30.35H46.6233V31.498H42.0873ZM50.7837 37V30.35H52.0437V37H50.7837ZM51.4137 29.02C51.1804 29.02 50.989 28.9453 50.8397 28.796C50.6904 28.6373 50.6157 28.4413 50.6157 28.208C50.6157 27.984 50.6904 27.7973 50.8397 27.648C50.989 27.4893 51.1804 27.41 51.4137 27.41C51.647 27.41 51.8384 27.4893 51.9877 27.648C52.137 27.7973 52.2117 27.984 52.2117 28.208C52.2117 28.4413 52.137 28.6373 51.9877 28.796C51.8384 28.9453 51.647 29.02 51.4137 29.02ZM53.9006 37V30.35H55.1606V37H53.9006ZM58.3946 37V32.982C58.3946 32.4873 58.2406 32.1 57.9326 31.82C57.6339 31.5307 57.2559 31.386 56.7986 31.386C56.4906 31.386 56.2152 31.4513 55.9726 31.582C55.7299 31.7127 55.5339 31.8947 55.3846 32.128C55.2352 32.3613 55.1606 32.6413 55.1606 32.968L54.6426 32.716C54.6426 32.212 54.7499 31.7733 54.9646 31.4C55.1886 31.0267 55.4919 30.7373 55.8746 30.532C56.2572 30.3173 56.6866 30.21 57.1626 30.21C57.6292 30.21 58.0492 30.3127 58.4226 30.518C58.8052 30.7233 59.1039 31.0127 59.3186 31.386C59.5426 31.7593 59.6546 32.2027 59.6546 32.716V37H58.3946ZM62.8886 37V32.982C62.8886 32.4873 62.7346 32.1 62.4266 31.82C62.1279 31.5307 61.7546 31.386 61.3066 31.386C60.9986 31.386 60.7186 31.4513 60.4666 31.582C60.2239 31.7127 60.0279 31.8947 59.8786 32.128C59.7292 32.3613 59.6546 32.6413 59.6546 32.968L58.9406 32.716C58.9686 32.2027 59.1039 31.764 59.3466 31.4C59.5986 31.0267 59.9206 30.7373 60.3126 30.532C60.7046 30.3173 61.1339 30.21 61.6006 30.21C62.0859 30.21 62.5199 30.3127 62.9026 30.518C63.2852 30.7233 63.5886 31.0127 63.8126 31.386C64.0459 31.7593 64.1626 32.2073 64.1626 32.73V37H62.8886ZM69.3771 37.14C68.8731 37.14 68.4158 37.0373 68.0051 36.832C67.6038 36.6173 67.2818 36.3233 67.0391 35.95C66.7965 35.5767 66.6611 35.152 66.6331 34.676V32.674C66.6611 32.1887 66.7965 31.764 67.0391 31.4C67.2911 31.0267 67.6178 30.7373 68.0191 30.532C68.4298 30.3173 68.8825 30.21 69.3771 30.21C69.9838 30.21 70.5298 30.364 71.0151 30.672C71.5098 30.98 71.8971 31.3953 72.1771 31.918C72.4571 32.4407 72.5971 33.0287 72.5971 33.682C72.5971 34.3353 72.4571 34.9233 72.1771 35.446C71.8971 35.9687 71.5098 36.384 71.0151 36.692C70.5298 36.9907 69.9838 37.14 69.3771 37.14ZM69.1671 35.95C69.5871 35.95 69.9558 35.852 70.2731 35.656C70.5905 35.46 70.8425 35.194 71.0291 34.858C71.2158 34.5127 71.3091 34.116 71.3091 33.668C71.3091 33.2293 71.2158 32.8373 71.0291 32.492C70.8425 32.1467 70.5905 31.8807 70.2731 31.694C69.9558 31.498 69.5918 31.4 69.1811 31.4C68.7611 31.4 68.3925 31.498 68.0751 31.694C67.7578 31.8807 67.5105 32.1467 67.3331 32.492C67.1558 32.8373 67.0671 33.234 67.0671 33.682C67.0671 34.1207 67.1511 34.5127 67.3191 34.858C67.4965 35.194 67.7438 35.46 68.0611 35.656C68.3878 35.852 68.7565 35.95 69.1671 35.95ZM65.8771 39.786V30.35H67.1371V32.1L66.8991 33.71L67.1371 35.334V39.786H65.8771ZM77.1056 37.14C76.4429 37.14 75.8456 36.9907 75.3136 36.692C74.7816 36.384 74.3616 35.9687 74.0536 35.446C73.7456 34.9233 73.5916 34.3307 73.5916 33.668C73.5916 33.0147 73.7409 32.4267 74.0396 31.904C74.3476 31.3813 74.7582 30.9707 75.2716 30.672C75.7942 30.364 76.3776 30.21 77.0216 30.21C77.6376 30.21 78.1789 30.35 78.6456 30.63C79.1216 30.91 79.4902 31.2973 79.7516 31.792C80.0222 32.2867 80.1576 32.8467 80.1576 33.472C80.1576 33.5653 80.1529 33.668 80.1436 33.78C80.1342 33.8827 80.1156 34.004 80.0876 34.144H74.4736V33.094H79.4156L78.9536 33.5C78.9536 33.052 78.8742 32.674 78.7156 32.366C78.5569 32.0487 78.3329 31.806 78.0436 31.638C77.7542 31.4607 77.4042 31.372 76.9936 31.372C76.5642 31.372 76.1862 31.4653 75.8596 31.652C75.5329 31.8387 75.2809 32.1 75.1036 32.436C74.9262 32.772 74.8376 33.1687 74.8376 33.626C74.8376 34.0927 74.9309 34.5033 75.1176 34.858C75.3042 35.2033 75.5702 35.474 75.9156 35.67C76.2609 35.8567 76.6576 35.95 77.1056 35.95C77.4789 35.95 77.8196 35.8847 78.1276 35.754C78.4449 35.6233 78.7156 35.4273 78.9396 35.166L79.7516 35.992C79.4342 36.3653 79.0422 36.65 78.5756 36.846C78.1182 37.042 77.6282 37.14 77.1056 37.14ZM81.5314 37V30.35H82.7914V37H81.5314ZM82.7914 33.206L82.3154 32.996C82.3154 32.1467 82.5114 31.47 82.9034 30.966C83.2954 30.462 83.8601 30.21 84.5974 30.21C84.9334 30.21 85.2368 30.2707 85.5074 30.392C85.7781 30.504 86.0301 30.6953 86.2634 30.966L85.4374 31.82C85.2974 31.6707 85.1434 31.5633 84.9754 31.498C84.8074 31.4327 84.6114 31.4 84.3874 31.4C83.9208 31.4 83.5381 31.5493 83.2394 31.848C82.9408 32.1467 82.7914 32.5993 82.7914 33.206ZM89.7458 37.14C89.1298 37.14 88.5791 36.9907 88.0938 36.692C87.6085 36.384 87.2211 35.9687 86.9318 35.446C86.6518 34.9233 86.5118 34.3353 86.5118 33.682C86.5118 33.0287 86.6518 32.4407 86.9318 31.918C87.2211 31.3953 87.6085 30.98 88.0938 30.672C88.5791 30.364 89.1298 30.21 89.7458 30.21C90.2405 30.21 90.6885 30.3173 91.0898 30.532C91.4911 30.7373 91.8131 31.0267 92.0558 31.4C92.3078 31.764 92.4478 32.1887 92.4758 32.674V34.676C92.4478 35.152 92.3125 35.5767 92.0698 35.95C91.8271 36.3233 91.5051 36.6173 91.1038 36.832C90.7025 37.0373 90.2498 37.14 89.7458 37.14ZM89.9558 35.95C90.3758 35.95 90.7398 35.852 91.0478 35.656C91.3651 35.46 91.6125 35.194 91.7898 34.858C91.9671 34.5127 92.0558 34.1207 92.0558 33.682C92.0558 33.2247 91.9625 32.828 91.7758 32.492C91.5985 32.156 91.3511 31.89 91.0338 31.694C90.7258 31.498 90.3618 31.4 89.9418 31.4C89.5218 31.4 89.1531 31.498 88.8358 31.694C88.5185 31.89 88.2665 32.1607 88.0798 32.506C87.9025 32.842 87.8138 33.2293 87.8138 33.668C87.8138 34.116 87.9025 34.5127 88.0798 34.858C88.2665 35.194 88.5185 35.46 88.8358 35.656C89.1625 35.852 89.5358 35.95 89.9558 35.95ZM93.2458 37H91.9718V35.208L92.2098 33.584L91.9718 31.974V27.004H93.2458V37ZM95.0943 37V30.35H96.3543V37H95.0943ZM95.7243 29.02C95.4909 29.02 95.2996 28.9453 95.1503 28.796C95.0009 28.6373 94.9263 28.4413 94.9263 28.208C94.9263 27.984 95.0009 27.7973 95.1503 27.648C95.2996 27.4893 95.4909 27.41 95.7243 27.41C95.9576 27.41 96.1489 27.4893 96.2983 27.648C96.4476 27.7973 96.5223 27.984 96.5223 28.208C96.5223 28.4413 96.4476 28.6373 96.2983 28.796C96.1489 28.9453 95.9576 29.02 95.7243 29.02ZM101.291 37.14C100.628 37.14 100.031 36.9907 99.4991 36.692C98.9671 36.384 98.5471 35.9687 98.2391 35.446C97.9311 34.9233 97.7771 34.3307 97.7771 33.668C97.7771 33.0147 97.9264 32.4267 98.2251 31.904C98.5331 31.3813 98.9438 30.9707 99.4571 30.672C99.9798 30.364 100.563 30.21 101.207 30.21C101.823 30.21 102.364 30.35 102.831 30.63C103.307 30.91 103.676 31.2973 103.937 31.792C104.208 32.2867 104.343 32.8467 104.343 33.472C104.343 33.5653 104.338 33.668 104.329 33.78C104.32 33.8827 104.301 34.004 104.273 34.144H98.6591V33.094H103.601L103.139 33.5C103.139 33.052 103.06 32.674 102.901 32.366C102.742 32.0487 102.518 31.806 102.229 31.638C101.94 31.4607 101.59 31.372 101.179 31.372C100.75 31.372 100.372 31.4653 100.045 31.652C99.7184 31.8387 99.4664 32.1 99.2891 32.436C99.1118 32.772 99.0231 33.1687 99.0231 33.626C99.0231 34.0927 99.1164 34.5033 99.3031 34.858C99.4898 35.2033 99.7558 35.474 100.101 35.67C100.446 35.8567 100.843 35.95 101.291 35.95C101.664 35.95 102.005 35.8847 102.313 35.754C102.63 35.6233 102.901 35.4273 103.125 35.166L103.937 35.992C103.62 36.3653 103.228 36.65 102.761 36.846C102.304 37.042 101.814 37.14 101.291 37.14ZM106.534 37V27.564H107.794V37H106.534ZM104.896 31.498V30.35H109.432V31.498H104.896ZM115.692 37.14C115.319 37.14 114.964 37.0933 114.628 37C114.302 36.8973 113.998 36.7573 113.718 36.58C113.438 36.3933 113.196 36.174 112.99 35.922L113.802 35.11C114.045 35.4087 114.325 35.6327 114.642 35.782C114.96 35.922 115.314 35.992 115.706 35.992C116.098 35.992 116.402 35.9267 116.616 35.796C116.831 35.656 116.938 35.4647 116.938 35.222C116.938 34.9793 116.85 34.7927 116.672 34.662C116.504 34.522 116.285 34.41 116.014 34.326C115.744 34.2327 115.454 34.144 115.146 34.06C114.848 33.9667 114.563 33.85 114.292 33.71C114.022 33.57 113.798 33.3787 113.62 33.136C113.452 32.8933 113.368 32.5713 113.368 32.17C113.368 31.7687 113.466 31.4233 113.662 31.134C113.858 30.8353 114.129 30.6067 114.474 30.448C114.829 30.2893 115.254 30.21 115.748 30.21C116.271 30.21 116.733 30.3033 117.134 30.49C117.545 30.6673 117.881 30.938 118.142 31.302L117.33 32.114C117.144 31.8713 116.91 31.6847 116.63 31.554C116.36 31.4233 116.052 31.358 115.706 31.358C115.342 31.358 115.062 31.4233 114.866 31.554C114.68 31.6753 114.586 31.848 114.586 32.072C114.586 32.296 114.67 32.4687 114.838 32.59C115.006 32.7113 115.226 32.814 115.496 32.898C115.776 32.982 116.066 33.0707 116.364 33.164C116.663 33.248 116.948 33.3647 117.218 33.514C117.489 33.6633 117.708 33.864 117.876 34.116C118.054 34.368 118.142 34.6993 118.142 35.11C118.142 35.7353 117.918 36.23 117.47 36.594C117.032 36.958 116.439 37.14 115.692 37.14ZM122.633 37.14C121.97 37.14 121.373 36.9907 120.841 36.692C120.309 36.384 119.889 35.9687 119.581 35.446C119.273 34.9233 119.119 34.3307 119.119 33.668C119.119 33.0147 119.268 32.4267 119.567 31.904C119.875 31.3813 120.286 30.9707 120.799 30.672C121.322 30.364 121.905 30.21 122.549 30.21C123.165 30.21 123.706 30.35 124.173 30.63C124.649 30.91 125.018 31.2973 125.279 31.792C125.55 32.2867 125.685 32.8467 125.685 33.472C125.685 33.5653 125.68 33.668 125.671 33.78C125.662 33.8827 125.643 34.004 125.615 34.144H120.001V33.094H124.943L124.481 33.5C124.481 33.052 124.402 32.674 124.243 32.366C124.084 32.0487 123.86 31.806 123.571 31.638C123.282 31.4607 122.932 31.372 122.521 31.372C122.092 31.372 121.714 31.4653 121.387 31.652C121.06 31.8387 120.808 32.1 120.631 32.436C120.454 32.772 120.365 33.1687 120.365 33.626C120.365 34.0927 120.458 34.5033 120.645 34.858C120.832 35.2033 121.098 35.474 121.443 35.67C121.788 35.8567 122.185 35.95 122.633 35.95C123.006 35.95 123.347 35.8847 123.655 35.754C123.972 35.6233 124.243 35.4273 124.467 35.166L125.279 35.992C124.962 36.3653 124.57 36.65 124.103 36.846C123.646 37.042 123.156 37.14 122.633 37.14ZM129.873 37.14C129.257 37.14 128.706 36.9907 128.221 36.692C127.735 36.384 127.348 35.9687 127.059 35.446C126.779 34.9233 126.639 34.3353 126.639 33.682C126.639 33.0287 126.779 32.4407 127.059 31.918C127.348 31.3953 127.735 30.98 128.221 30.672C128.706 30.364 129.257 30.21 129.873 30.21C130.367 30.21 130.815 30.3173 131.217 30.532C131.618 30.7373 131.94 31.0267 132.183 31.4C132.435 31.764 132.575 32.1887 132.603 32.674V34.676C132.575 35.152 132.439 35.5767 132.197 35.95C131.954 36.3233 131.632 36.6173 131.231 36.832C130.829 37.0373 130.377 37.14 129.873 37.14ZM130.083 35.95C130.503 35.95 130.867 35.852 131.175 35.656C131.492 35.46 131.739 35.194 131.917 34.858C132.094 34.5127 132.183 34.1207 132.183 33.682C132.183 33.2247 132.089 32.828 131.903 32.492C131.725 32.156 131.478 31.89 131.161 31.694C130.853 31.498 130.489 31.4 130.069 31.4C129.649 31.4 129.28 31.498 128.963 31.694C128.645 31.89 128.393 32.1607 128.207 32.506C128.029 32.842 127.941 33.2293 127.941 33.668C127.941 34.116 128.029 34.5127 128.207 34.858C128.393 35.194 128.645 35.46 128.963 35.656C129.289 35.852 129.663 35.95 130.083 35.95ZM133.373 37H132.099V35.208L132.337 33.584L132.099 31.974V27.004H133.373V37ZM141.199 37.14C140.537 37.14 139.939 36.9907 139.407 36.692C138.875 36.384 138.455 35.9687 138.147 35.446C137.839 34.9233 137.685 34.3307 137.685 33.668C137.685 33.0147 137.835 32.4267 138.133 31.904C138.441 31.3813 138.852 30.9707 139.365 30.672C139.888 30.364 140.471 30.21 141.115 30.21C141.731 30.21 142.273 30.35 142.739 30.63C143.215 30.91 143.584 31.2973 143.845 31.792C144.116 32.2867 144.251 32.8467 144.251 33.472C144.251 33.5653 144.247 33.668 144.237 33.78C144.228 33.8827 144.209 34.004 144.181 34.144H138.567V33.094H143.509L143.047 33.5C143.047 33.052 142.968 32.674 142.809 32.366C142.651 32.0487 142.427 31.806 142.137 31.638C141.848 31.4607 141.498 31.372 141.087 31.372C140.658 31.372 140.28 31.4653 139.953 31.652C139.627 31.8387 139.375 32.1 139.197 32.436C139.02 32.772 138.931 33.1687 138.931 33.626C138.931 34.0927 139.025 34.5033 139.211 34.858C139.398 35.2033 139.664 35.474 140.009 35.67C140.355 35.8567 140.751 35.95 141.199 35.95C141.573 35.95 141.913 35.8847 142.221 35.754C142.539 35.6233 142.809 35.4273 143.033 35.166L143.845 35.992C143.528 36.3653 143.136 36.65 142.669 36.846C142.212 37.042 141.722 37.14 141.199 37.14ZM148.299 37.14C147.758 37.14 147.268 37.0187 146.829 36.776C146.4 36.524 146.064 36.1787 145.821 35.74C145.579 35.3013 145.457 34.7927 145.457 34.214V30.35H146.717V34.158C146.717 34.522 146.778 34.8393 146.899 35.11C147.03 35.3713 147.217 35.572 147.459 35.712C147.702 35.852 147.987 35.922 148.313 35.922C148.808 35.922 149.195 35.768 149.475 35.46C149.755 35.1427 149.895 34.7087 149.895 34.158V30.35H151.155V34.214C151.155 34.7927 151.034 35.3013 150.791 35.74C150.549 36.1787 150.213 36.524 149.783 36.776C149.363 37.0187 148.869 37.14 148.299 37.14ZM152.858 37V30.35H154.118V37H152.858ZM153.488 29.02C153.255 29.02 153.063 28.9453 152.914 28.796C152.765 28.6373 152.69 28.4413 152.69 28.208C152.69 27.984 152.765 27.7973 152.914 27.648C153.063 27.4893 153.255 27.41 153.488 27.41C153.721 27.41 153.913 27.4893 154.062 27.648C154.211 27.7973 154.286 27.984 154.286 28.208C154.286 28.4413 154.211 28.6373 154.062 28.796C153.913 28.9453 153.721 29.02 153.488 29.02ZM158.089 37.14C157.715 37.14 157.361 37.0933 157.025 37C156.698 36.8973 156.395 36.7573 156.115 36.58C155.835 36.3933 155.592 36.174 155.387 35.922L156.199 35.11C156.441 35.4087 156.721 35.6327 157.039 35.782C157.356 35.922 157.711 35.992 158.103 35.992C158.495 35.992 158.798 35.9267 159.013 35.796C159.227 35.656 159.335 35.4647 159.335 35.222C159.335 34.9793 159.246 34.7927 159.069 34.662C158.901 34.522 158.681 34.41 158.411 34.326C158.14 34.2327 157.851 34.144 157.543 34.06C157.244 33.9667 156.959 33.85 156.689 33.71C156.418 33.57 156.194 33.3787 156.017 33.136C155.849 32.8933 155.765 32.5713 155.765 32.17C155.765 31.7687 155.863 31.4233 156.059 31.134C156.255 30.8353 156.525 30.6067 156.871 30.448C157.225 30.2893 157.65 30.21 158.145 30.21C158.667 30.21 159.129 30.3033 159.531 30.49C159.941 30.6673 160.277 30.938 160.539 31.302L159.727 32.114C159.54 31.8713 159.307 31.6847 159.027 31.554C158.756 31.4233 158.448 31.358 158.103 31.358C157.739 31.358 157.459 31.4233 157.263 31.554C157.076 31.6753 156.983 31.848 156.983 32.072C156.983 32.296 157.067 32.4687 157.235 32.59C157.403 32.7113 157.622 32.814 157.893 32.898C158.173 32.982 158.462 33.0707 158.761 33.164C159.059 33.248 159.344 33.3647 159.615 33.514C159.885 33.6633 160.105 33.864 160.273 34.116C160.45 34.368 160.539 34.6993 160.539 35.11C160.539 35.7353 160.315 36.23 159.867 36.594C159.428 36.958 158.835 37.14 158.089 37.14ZM161.949 37V30.35H163.209V37H161.949ZM166.443 37V32.982C166.443 32.4873 166.289 32.1 165.981 31.82C165.683 31.5307 165.305 31.386 164.847 31.386C164.539 31.386 164.264 31.4513 164.021 31.582C163.779 31.7127 163.583 31.8947 163.433 32.128C163.284 32.3613 163.209 32.6413 163.209 32.968L162.691 32.716C162.691 32.212 162.799 31.7733 163.013 31.4C163.237 31.0267 163.541 30.7373 163.923 30.532C164.306 30.3173 164.735 30.21 165.211 30.21C165.678 30.21 166.098 30.3127 166.471 30.518C166.854 30.7233 167.153 31.0127 167.367 31.386C167.591 31.7593 167.703 32.2027 167.703 32.716V37H166.443ZM170.937 37V32.982C170.937 32.4873 170.783 32.1 170.475 31.82C170.177 31.5307 169.803 31.386 169.355 31.386C169.047 31.386 168.767 31.4513 168.515 31.582C168.273 31.7127 168.077 31.8947 167.927 32.128C167.778 32.3613 167.703 32.6413 167.703 32.968L166.989 32.716C167.017 32.2027 167.153 31.764 167.395 31.4C167.647 31.0267 167.969 30.7373 168.361 30.532C168.753 30.3173 169.183 30.21 169.649 30.21C170.135 30.21 170.569 30.3127 170.951 30.518C171.334 30.7233 171.637 31.0127 171.861 31.386C172.095 31.7593 172.211 32.2073 172.211 32.73V37H170.937ZM176.964 37.14C176.311 37.14 175.723 36.986 175.2 36.678C174.677 36.37 174.262 35.9547 173.954 35.432C173.646 34.9 173.492 34.3073 173.492 33.654C173.492 33.01 173.646 32.4313 173.954 31.918C174.262 31.3953 174.677 30.98 175.2 30.672C175.723 30.364 176.311 30.21 176.964 30.21C177.608 30.21 178.191 30.364 178.714 30.672C179.246 30.9707 179.666 31.3813 179.974 31.904C180.282 32.4267 180.436 33.01 180.436 33.654C180.436 34.3073 180.282 34.9 179.974 35.432C179.666 35.9547 179.246 36.37 178.714 36.678C178.191 36.986 177.608 37.14 176.964 37.14ZM176.964 35.922C177.384 35.922 177.757 35.824 178.084 35.628C178.411 35.432 178.667 35.166 178.854 34.83C179.041 34.4847 179.134 34.0927 179.134 33.654C179.134 33.2247 179.036 32.842 178.84 32.506C178.653 32.17 178.397 31.9087 178.07 31.722C177.753 31.526 177.384 31.428 176.964 31.428C176.544 31.428 176.171 31.526 175.844 31.722C175.517 31.9087 175.261 32.17 175.074 32.506C174.887 32.842 174.794 33.2247 174.794 33.654C174.794 34.0927 174.887 34.4847 175.074 34.83C175.261 35.166 175.517 35.432 175.844 35.628C176.171 35.824 176.544 35.922 176.964 35.922ZM184.67 37.14C184.054 37.14 183.503 36.9907 183.018 36.692C182.532 36.384 182.145 35.9687 181.856 35.446C181.576 34.9233 181.436 34.3353 181.436 33.682C181.436 33.0287 181.576 32.4407 181.856 31.918C182.145 31.3953 182.532 30.98 183.018 30.672C183.503 30.364 184.054 30.21 184.67 30.21C185.164 30.21 185.612 30.3173 186.014 30.532C186.415 30.7373 186.737 31.0267 186.98 31.4C187.232 31.764 187.372 32.1887 187.4 32.674V34.676C187.372 35.152 187.236 35.5767 186.994 35.95C186.751 36.3233 186.429 36.6173 186.028 36.832C185.626 37.0373 185.174 37.14 184.67 37.14ZM184.88 35.95C185.3 35.95 185.664 35.852 185.972 35.656C186.289 35.46 186.536 35.194 186.714 34.858C186.891 34.5127 186.98 34.1207 186.98 33.682C186.98 33.2247 186.886 32.828 186.7 32.492C186.522 32.156 186.275 31.89 185.958 31.694C185.65 31.498 185.286 31.4 184.866 31.4C184.446 31.4 184.077 31.498 183.76 31.694C183.442 31.89 183.19 32.1607 183.004 32.506C182.826 32.842 182.738 33.2293 182.738 33.668C182.738 34.116 182.826 34.5127 183.004 34.858C183.19 35.194 183.442 35.46 183.76 35.656C184.086 35.852 184.46 35.95 184.88 35.95ZM188.17 37H186.896V35.208L187.134 33.584L186.896 31.974V27.004H188.17V37ZM197.62 37V33.122C197.62 32.618 197.462 32.2027 197.144 31.876C196.827 31.5493 196.416 31.386 195.912 31.386C195.576 31.386 195.278 31.4607 195.016 31.61C194.755 31.7593 194.55 31.9647 194.4 32.226C194.251 32.4873 194.176 32.786 194.176 33.122L193.658 32.828C193.658 32.324 193.77 31.876 193.994 31.484C194.218 31.092 194.531 30.784 194.932 30.56C195.334 30.3267 195.786 30.21 196.29 30.21C196.794 30.21 197.238 30.336 197.62 30.588C198.012 30.84 198.32 31.1713 198.544 31.582C198.768 31.9833 198.88 32.4127 198.88 32.87V37H197.62ZM192.916 37V30.35H194.176V37H192.916ZM200.6 37V30.35H201.86V37H200.6ZM201.23 29.02C200.997 29.02 200.805 28.9453 200.656 28.796C200.507 28.6373 200.432 28.4413 200.432 28.208C200.432 27.984 200.507 27.7973 200.656 27.648C200.805 27.4893 200.997 27.41 201.23 27.41C201.463 27.41 201.655 27.4893 201.804 27.648C201.953 27.7973 202.028 27.984 202.028 28.208C202.028 28.4413 201.953 28.6373 201.804 28.796C201.655 28.9453 201.463 29.02 201.23 29.02ZM205.831 37.14C205.458 37.14 205.103 37.0933 204.767 37C204.44 36.8973 204.137 36.7573 203.857 36.58C203.577 36.3933 203.334 36.174 203.129 35.922L203.941 35.11C204.184 35.4087 204.464 35.6327 204.781 35.782C205.098 35.922 205.453 35.992 205.845 35.992C206.237 35.992 206.54 35.9267 206.755 35.796C206.97 35.656 207.077 35.4647 207.077 35.222C207.077 34.9793 206.988 34.7927 206.811 34.662C206.643 34.522 206.424 34.41 206.153 34.326C205.882 34.2327 205.593 34.144 205.285 34.06C204.986 33.9667 204.702 33.85 204.431 33.71C204.16 33.57 203.936 33.3787 203.759 33.136C203.591 32.8933 203.507 32.5713 203.507 32.17C203.507 31.7687 203.605 31.4233 203.801 31.134C203.997 30.8353 204.268 30.6067 204.613 30.448C204.968 30.2893 205.392 30.21 205.887 30.21C206.41 30.21 206.872 30.3033 207.273 30.49C207.684 30.6673 208.02 30.938 208.281 31.302L207.469 32.114C207.282 31.8713 207.049 31.6847 206.769 31.554C206.498 31.4233 206.19 31.358 205.845 31.358C205.481 31.358 205.201 31.4233 205.005 31.554C204.818 31.6753 204.725 31.848 204.725 32.072C204.725 32.296 204.809 32.4687 204.977 32.59C205.145 32.7113 205.364 32.814 205.635 32.898C205.915 32.982 206.204 33.0707 206.503 33.164C206.802 33.248 207.086 33.3647 207.357 33.514C207.628 33.6633 207.847 33.864 208.015 34.116C208.192 34.368 208.281 34.6993 208.281 35.11C208.281 35.7353 208.057 36.23 207.609 36.594C207.17 36.958 206.578 37.14 205.831 37.14ZM209.706 37V30.35H210.966V37H209.706ZM210.336 29.02C210.102 29.02 209.911 28.9453 209.762 28.796C209.612 28.6373 209.538 28.4413 209.538 28.208C209.538 27.984 209.612 27.7973 209.762 27.648C209.911 27.4893 210.102 27.41 210.336 27.41C210.569 27.41 210.76 27.4893 210.91 27.648C211.059 27.7973 211.134 27.984 211.134 28.208C211.134 28.4413 211.059 28.6373 210.91 28.796C210.76 28.9453 210.569 29.02 210.336 29.02Z" fill="#62676C"/>
<rect x="20" y="56" width="24" height="24" rx="8" fill="#ECAE52"/>
<path opacity="0.6" d="M28.8699 70C28.9249 69.755 28.8249 69.405 28.6499 69.23L27.4349 68.015C27.0549 67.635 26.9049 67.23 27.0149 66.88C27.1299 66.53 27.4849 66.29 28.0149 66.2L29.5749 65.94C29.7999 65.9 30.0749 65.7 30.1799 65.495L31.0399 63.77C31.2899 63.275 31.6299 63 31.9999 63C32.3699 63 32.7099 63.275 32.9599 63.77L33.8199 65.495C33.8849 65.625 34.0199 65.75 34.1649 65.835L28.7799 71.22C28.7099 71.29 28.5899 71.225 28.6099 71.125L28.8699 70Z" fill="white"/>
<path d="M35.3499 69.2299C35.1699 69.4099 35.0699 69.7549 35.1299 69.9999L35.4749 71.5049C35.6199 72.1299 35.5299 72.5999 35.2199 72.8249C35.0949 72.9149 34.9449 72.9599 34.7699 72.9599C34.5149 72.9599 34.2149 72.8649 33.8849 72.6699L32.4199 71.7999C32.1899 71.6649 31.8099 71.6649 31.5799 71.7999L30.1149 72.6699C29.5599 72.9949 29.0849 73.0499 28.7799 72.8249C28.6649 72.7399 28.5799 72.6249 28.5249 72.4749L34.6049 66.3949C34.8349 66.1649 35.1599 66.0599 35.4749 66.1149L35.9799 66.1999C36.5099 66.2899 36.8649 66.5299 36.9799 66.8799C37.0899 67.2299 36.9399 67.6349 36.5599 68.0149L35.3499 69.2299Z" fill="white"/>
<path d="M58.336 74.16C57.4507 74.16 56.6987 74 56.08 73.68C55.4613 73.36 54.9067 72.8907 54.416 72.272L55.664 71.024C55.9733 71.472 56.3413 71.824 56.768 72.08C57.1947 72.3253 57.7387 72.448 58.4 72.448C59.0187 72.448 59.5093 72.32 59.872 72.064C60.2453 71.808 60.432 71.456 60.432 71.008C60.432 70.6347 60.336 70.3307 60.144 70.096C59.952 69.8613 59.696 69.6693 59.376 69.52C59.0667 69.36 58.72 69.2213 58.336 69.104C57.9627 68.976 57.584 68.8373 57.2 68.688C56.8267 68.528 56.48 68.3307 56.16 68.096C55.8507 67.8613 55.6 67.5573 55.408 67.184C55.216 66.8107 55.12 66.336 55.12 65.76C55.12 65.0987 55.28 64.5387 55.6 64.08C55.9307 63.6107 56.3733 63.2533 56.928 63.008C57.4827 62.7627 58.1013 62.64 58.784 62.64C59.52 62.64 60.176 62.784 60.752 63.072C61.3387 63.36 61.8133 63.728 62.176 64.176L60.928 65.424C60.608 65.0613 60.272 64.7947 59.92 64.624C59.5787 64.4427 59.184 64.352 58.736 64.352C58.1813 64.352 57.744 64.464 57.424 64.688C57.1147 64.912 56.96 65.2267 56.96 65.632C56.96 65.9733 57.056 66.2507 57.248 66.464C57.44 66.6667 57.6907 66.8427 58 66.992C58.32 67.1307 58.6667 67.264 59.04 67.392C59.424 67.52 59.8027 67.664 60.176 67.824C60.56 67.984 60.9067 68.192 61.216 68.448C61.536 68.6933 61.792 69.0133 61.984 69.408C62.176 69.8027 62.272 70.2987 62.272 70.896C62.272 71.8987 61.9147 72.6933 61.2 73.28C60.496 73.8667 59.5413 74.16 58.336 74.16ZM67.0186 74.16C66.368 74.16 65.7866 74.016 65.2746 73.728C64.7733 73.44 64.3786 73.0453 64.0906 72.544C63.8133 72.032 63.6746 71.4453 63.6746 70.784V66.32H65.4346V70.704C65.4346 71.0773 65.4933 71.3973 65.6106 71.664C65.7386 71.92 65.92 72.1173 66.1546 72.256C66.4 72.3947 66.688 72.464 67.0186 72.464C67.5306 72.464 67.92 72.3147 68.1866 72.016C68.464 71.7067 68.6026 71.2693 68.6026 70.704V66.32H70.3626V70.784C70.3626 71.456 70.2186 72.048 69.9306 72.56C69.6533 73.0613 69.264 73.456 68.7626 73.744C68.2613 74.0213 67.68 74.16 67.0186 74.16ZM75.6683 74.16C74.9109 74.16 74.2229 73.984 73.6043 73.632C72.9963 73.28 72.5163 72.8 72.1643 72.192C71.8123 71.584 71.6363 70.9067 71.6363 70.16C71.6363 69.4027 71.8123 68.7253 72.1643 68.128C72.5163 67.52 72.9963 67.04 73.6043 66.688C74.2229 66.336 74.9109 66.16 75.6683 66.16C76.2656 66.16 76.8203 66.2773 77.3323 66.512C77.8549 66.736 78.2976 67.0613 78.6603 67.488L77.5083 68.656C77.2843 68.3893 77.0123 68.192 76.6923 68.064C76.3829 67.9253 76.0416 67.856 75.6683 67.856C75.2309 67.856 74.8416 67.9573 74.5003 68.16C74.1696 68.352 73.9083 68.6187 73.7163 68.96C73.5349 69.3013 73.4443 69.7013 73.4443 70.16C73.4443 70.608 73.5349 71.008 73.7163 71.36C73.9083 71.7013 74.1696 71.9733 74.5003 72.176C74.8416 72.368 75.2309 72.464 75.6683 72.464C76.0416 72.464 76.3829 72.4 76.6923 72.272C77.0123 72.1333 77.2843 71.9307 77.5083 71.664L78.6603 72.832C78.2976 73.2587 77.8549 73.5893 77.3323 73.824C76.8203 74.048 76.2656 74.16 75.6683 74.16ZM83.3089 74.16C82.5515 74.16 81.8635 73.984 81.2449 73.632C80.6369 73.28 80.1569 72.8 79.8049 72.192C79.4529 71.584 79.2769 70.9067 79.2769 70.16C79.2769 69.4027 79.4529 68.7253 79.8049 68.128C80.1569 67.52 80.6369 67.04 81.2449 66.688C81.8635 66.336 82.5515 66.16 83.3089 66.16C83.9062 66.16 84.4609 66.2773 84.9729 66.512C85.4955 66.736 85.9382 67.0613 86.3009 67.488L85.1489 68.656C84.9249 68.3893 84.6529 68.192 84.3329 68.064C84.0235 67.9253 83.6822 67.856 83.3089 67.856C82.8715 67.856 82.4822 67.9573 82.1409 68.16C81.8102 68.352 81.5489 68.6187 81.3569 68.96C81.1755 69.3013 81.0849 69.7013 81.0849 70.16C81.0849 70.608 81.1755 71.008 81.3569 71.36C81.5489 71.7013 81.8102 71.9733 82.1409 72.176C82.4822 72.368 82.8715 72.464 83.3089 72.464C83.6822 72.464 84.0235 72.4 84.3329 72.272C84.6529 72.1333 84.9249 71.9307 85.1489 71.664L86.3009 72.832C85.9382 73.2587 85.4955 73.5893 84.9729 73.824C84.4609 74.048 83.9062 74.16 83.3089 74.16ZM90.9815 74.16C90.2135 74.16 89.5202 73.9893 88.9015 73.648C88.2935 73.296 87.8082 72.816 87.4455 72.208C87.0935 71.6 86.9175 70.9173 86.9175 70.16C86.9175 69.4027 87.0935 68.7253 87.4455 68.128C87.7975 67.52 88.2722 67.04 88.8695 66.688C89.4775 66.336 90.1495 66.16 90.8855 66.16C91.6002 66.16 92.2295 66.3253 92.7735 66.656C93.3282 66.9867 93.7602 67.44 94.0695 68.016C94.3895 68.592 94.5495 69.248 94.5495 69.984C94.5495 70.112 94.5388 70.2453 94.5175 70.384C94.5068 70.512 94.4855 70.656 94.4535 70.816H88.1495V69.376H93.5415L92.8855 69.952C92.8642 69.4827 92.7735 69.088 92.6135 68.768C92.4535 68.448 92.2242 68.2027 91.9255 68.032C91.6375 67.8613 91.2802 67.776 90.8535 67.776C90.4055 67.776 90.0162 67.872 89.6855 68.064C89.3548 68.256 89.0988 68.528 88.9175 68.88C88.7362 69.2213 88.6455 69.632 88.6455 70.112C88.6455 70.592 88.7415 71.0133 88.9335 71.376C89.1255 71.7387 89.3975 72.0213 89.7495 72.224C90.1015 72.416 90.5068 72.512 90.9655 72.512C91.3602 72.512 91.7228 72.4427 92.0535 72.304C92.3948 72.1653 92.6828 71.9627 92.9175 71.696L94.0375 72.832C93.6642 73.2693 93.2108 73.6 92.6775 73.824C92.1442 74.048 91.5788 74.16 90.9815 74.16ZM98.4724 74.16C98.0457 74.16 97.635 74.1067 97.2404 74C96.8457 73.8827 96.483 73.7227 96.1524 73.52C95.8217 73.3067 95.5337 73.0507 95.2884 72.752L96.4084 71.632C96.675 71.9413 96.979 72.176 97.3204 72.336C97.6724 72.4853 98.067 72.56 98.5044 72.56C98.899 72.56 99.1977 72.5013 99.4004 72.384C99.603 72.2667 99.7044 72.096 99.7044 71.872C99.7044 71.6373 99.6084 71.456 99.4164 71.328C99.2244 71.2 98.9737 71.0933 98.6644 71.008C98.3657 70.912 98.0457 70.816 97.7044 70.72C97.3737 70.624 97.0537 70.496 96.7444 70.336C96.4457 70.1653 96.2004 69.936 96.0084 69.648C95.8164 69.36 95.7204 68.9867 95.7204 68.528C95.7204 68.0373 95.8324 67.616 96.0564 67.264C96.291 66.912 96.6164 66.64 97.0324 66.448C97.459 66.256 97.9657 66.16 98.5524 66.16C99.171 66.16 99.715 66.272 100.184 66.496C100.664 66.7093 101.064 67.0347 101.384 67.472L100.264 68.592C100.04 68.3147 99.7844 68.1067 99.4964 67.968C99.2084 67.8293 98.8777 67.76 98.5044 67.76C98.1524 67.76 97.8804 67.8133 97.6884 67.92C97.4964 68.0267 97.4004 68.1813 97.4004 68.384C97.4004 68.5973 97.4964 68.7627 97.6884 68.88C97.8804 68.9973 98.1257 69.0987 98.4244 69.184C98.7337 69.2693 99.0537 69.3653 99.3844 69.472C99.7257 69.568 100.046 69.7067 100.344 69.888C100.654 70.0587 100.904 70.2933 101.096 70.592C101.288 70.88 101.384 71.2587 101.384 71.728C101.384 72.4747 101.123 73.0667 100.6 73.504C100.078 73.9413 99.3684 74.16 98.4724 74.16ZM105.347 74.16C104.921 74.16 104.51 74.1067 104.115 74C103.721 73.8827 103.358 73.7227 103.027 73.52C102.697 73.3067 102.409 73.0507 102.163 72.752L103.283 71.632C103.55 71.9413 103.854 72.176 104.195 72.336C104.547 72.4853 104.942 72.56 105.379 72.56C105.774 72.56 106.073 72.5013 106.275 72.384C106.478 72.2667 106.579 72.096 106.579 71.872C106.579 71.6373 106.483 71.456 106.291 71.328C106.099 71.2 105.849 71.0933 105.539 71.008C105.241 70.912 104.921 70.816 104.579 70.72C104.249 70.624 103.929 70.496 103.619 70.336C103.321 70.1653 103.075 69.936 102.883 69.648C102.691 69.36 102.595 68.9867 102.595 68.528C102.595 68.0373 102.707 67.616 102.931 67.264C103.166 66.912 103.491 66.64 103.907 66.448C104.334 66.256 104.841 66.16 105.427 66.16C106.046 66.16 106.59 66.272 107.059 66.496C107.539 66.7093 107.939 67.0347 108.259 67.472L107.139 68.592C106.915 68.3147 106.659 68.1067 106.371 67.968C106.083 67.8293 105.753 67.76 105.379 67.76C105.027 67.76 104.755 67.8133 104.563 67.92C104.371 68.0267 104.275 68.1813 104.275 68.384C104.275 68.5973 104.371 68.7627 104.563 68.88C104.755 68.9973 105.001 69.0987 105.299 69.184C105.609 69.2693 105.929 69.3653 106.259 69.472C106.601 69.568 106.921 69.7067 107.219 69.888C107.529 70.0587 107.779 70.2933 107.971 70.592C108.163 70.88 108.259 71.2587 108.259 71.728C108.259 72.4747 107.998 73.0667 107.475 73.504C106.953 73.9413 106.243 74.16 105.347 74.16Z" fill="#262A2F"/>
<rect x="161" y="56" width="24" height="24" rx="8" fill="#FFBFBF"/>
<path d="M178 66.345C178 66.94 177.905 67.49 177.74 68H168.26C168.095 67.49 168 66.94 168 66.345C168 64.8 169.245 63.55 170.78 63.55C171.685 63.55 172.495 63.99 173 64.665C173.505 63.99 174.315 63.55 175.22 63.55C176.755 63.55 178 64.8 178 66.345Z" fill="white"/>
<path opacity="0.6" d="M177.74 68C176.95 70.5 174.515 71.995 173.31 72.405C173.14 72.465 172.86 72.465 172.69 72.405C171.485 71.995 169.05 70.5 168.26 68H177.74Z" fill="white"/>
<path d="M196.216 74V62.8H198.056V74H196.216ZM203.336 74V62.8H205.176V74H203.336ZM197.48 69.04V67.36H203.736V69.04H197.48ZM210.935 74.16C210.167 74.16 209.473 73.9893 208.855 73.648C208.247 73.296 207.761 72.816 207.399 72.208C207.047 71.6 206.871 70.9173 206.871 70.16C206.871 69.4027 207.047 68.7253 207.399 68.128C207.751 67.52 208.225 67.04 208.823 66.688C209.431 66.336 210.103 66.16 210.839 66.16C211.553 66.16 212.183 66.3253 212.727 66.656C213.281 66.9867 213.713 67.44 214.023 68.016C214.343 68.592 214.503 69.248 214.503 69.984C214.503 70.112 214.492 70.2453 214.471 70.384C214.46 70.512 214.439 70.656 214.407 70.816H208.103V69.376H213.495L212.839 69.952C212.817 69.4827 212.727 69.088 212.567 68.768C212.407 68.448 212.177 68.2027 211.879 68.032C211.591 67.8613 211.233 67.776 210.807 67.776C210.359 67.776 209.969 67.872 209.639 68.064C209.308 68.256 209.052 68.528 208.871 68.88C208.689 69.2213 208.599 69.632 208.599 70.112C208.599 70.592 208.695 71.0133 208.887 71.376C209.079 71.7387 209.351 72.0213 209.703 72.224C210.055 72.416 210.46 72.512 210.919 72.512C211.313 72.512 211.676 72.4427 212.007 72.304C212.348 72.1653 212.636 71.9627 212.871 71.696L213.991 72.832C213.617 73.2693 213.164 73.6 212.631 73.824C212.097 74.048 211.532 74.16 210.935 74.16ZM219.13 74.16C218.436 74.16 217.807 73.984 217.242 73.632C216.687 73.28 216.244 72.8053 215.914 72.208C215.594 71.6 215.434 70.9227 215.434 70.176C215.434 69.4187 215.594 68.7413 215.914 68.144C216.244 67.536 216.687 67.056 217.242 66.704C217.807 66.3413 218.436 66.16 219.13 66.16C219.716 66.16 220.234 66.288 220.682 66.544C221.14 66.7893 221.503 67.1307 221.77 67.568C222.036 68.0053 222.17 68.5013 222.17 69.056V71.264C222.17 71.8187 222.036 72.3147 221.77 72.752C221.514 73.1893 221.156 73.536 220.698 73.792C220.239 74.0373 219.716 74.16 219.13 74.16ZM219.418 72.496C220.068 72.496 220.591 72.2773 220.986 71.84C221.391 71.4027 221.594 70.8427 221.594 70.16C221.594 69.7013 221.503 69.296 221.322 68.944C221.14 68.592 220.884 68.32 220.554 68.128C220.234 67.9253 219.855 67.824 219.418 67.824C218.991 67.824 218.612 67.9253 218.282 68.128C217.962 68.32 217.706 68.592 217.514 68.944C217.332 69.296 217.242 69.7013 217.242 70.16C217.242 70.6187 217.332 71.024 217.514 71.376C217.706 71.728 217.962 72.0053 218.282 72.208C218.612 72.4 218.991 72.496 219.418 72.496ZM221.482 74V71.936L221.786 70.064L221.482 68.208V66.32H223.242V74H221.482ZM225.195 74V62.48H226.955V74H225.195ZM230.082 74V63.12H231.842V74H230.082ZM228.242 67.92V66.32H233.682V67.92H228.242ZM240.224 74V69.568C240.224 69.056 240.059 68.6347 239.728 68.304C239.408 67.9733 238.992 67.808 238.48 67.808C238.139 67.808 237.835 67.8827 237.568 68.032C237.302 68.1813 237.094 68.3893 236.944 68.656C236.795 68.9227 236.72 69.2267 236.72 69.568L236.032 69.184C236.032 68.5973 236.16 68.08 236.416 67.632C236.672 67.1733 237.024 66.816 237.472 66.56C237.931 66.2933 238.443 66.16 239.008 66.16C239.584 66.16 240.096 66.288 240.544 66.544C240.992 66.8 241.344 67.1573 241.6 67.616C241.856 68.064 241.984 68.5867 241.984 69.184V74H240.224ZM234.96 74V62.48H236.72V74H234.96Z" fill="#262A2F"/>
<rect x="20" y="108" width="255" height="167" rx="16" fill="white"/>
<path d="M42.192 147L45.472 142.408L46.128 142.008C46.0213 142.243 45.8827 142.451 45.712 142.632C45.552 142.813 45.3387 142.952 45.072 143.048C44.8053 143.144 44.464 143.192 44.048 143.192C43.408 143.192 42.8213 143.043 42.288 142.744C41.7547 142.435 41.328 142.008 41.008 141.464C40.688 140.92 40.528 140.291 40.528 139.576C40.528 138.851 40.704 138.189 41.056 137.592C41.4187 136.995 41.8987 136.52 42.496 136.168C43.0933 135.816 43.76 135.64 44.496 135.64C45.2427 135.64 45.9147 135.816 46.512 136.168C47.1093 136.509 47.5787 136.973 47.92 137.56C48.272 138.136 48.448 138.787 48.448 139.512C48.448 140.536 48.0907 141.571 47.376 142.616L44.32 147H42.192ZM44.496 141.752C44.9013 141.752 45.264 141.656 45.584 141.464C45.904 141.272 46.1547 141.011 46.336 140.68C46.5173 140.349 46.608 139.981 46.608 139.576C46.608 139.149 46.5173 138.771 46.336 138.44C46.1547 138.109 45.904 137.848 45.584 137.656C45.264 137.464 44.9013 137.368 44.496 137.368C44.0907 137.368 43.728 137.464 43.408 137.656C43.088 137.848 42.832 138.109 42.64 138.44C42.4587 138.771 42.368 139.149 42.368 139.576C42.368 139.992 42.4587 140.365 42.64 140.696C42.832 141.016 43.088 141.272 43.408 141.464C43.7387 141.656 44.1013 141.752 44.496 141.752ZM54.2484 147.16C53.4057 147.16 52.6324 146.925 51.9284 146.456C51.235 145.976 50.6804 145.304 50.2644 144.44C49.8484 143.576 49.6404 142.557 49.6404 141.384C49.6404 140.211 49.843 139.197 50.2484 138.344C50.6644 137.48 51.219 136.813 51.9124 136.344C52.6057 135.875 53.3737 135.64 54.2164 135.64C55.0697 135.64 55.843 135.875 56.5364 136.344C57.2297 136.813 57.779 137.48 58.1844 138.344C58.6004 139.197 58.8084 140.216 58.8084 141.4C58.8084 142.573 58.6004 143.592 58.1844 144.456C57.779 145.32 57.2297 145.987 56.5364 146.456C55.8537 146.925 55.091 147.16 54.2484 147.16ZM54.2164 145.432C54.771 145.432 55.251 145.283 55.6564 144.984C56.0617 144.685 56.3764 144.237 56.6004 143.64C56.835 143.043 56.9524 142.291 56.9524 141.384C56.9524 140.488 56.835 139.741 56.6004 139.144C56.3764 138.547 56.0564 138.104 55.6404 137.816C55.235 137.517 54.7604 137.368 54.2164 137.368C53.6724 137.368 53.1924 137.517 52.7764 137.816C52.371 138.104 52.0564 138.547 51.8324 139.144C51.6084 139.731 51.4964 140.477 51.4964 141.384C51.4964 142.291 51.6084 143.043 51.8324 143.64C52.0564 144.237 52.371 144.685 52.7764 144.984C53.1924 145.283 53.6724 145.432 54.2164 145.432ZM62.3808 140.168C61.9648 140.168 61.5808 140.067 61.2288 139.864C60.8874 139.661 60.6154 139.389 60.4128 139.048C60.2101 138.707 60.1088 138.323 60.1088 137.896C60.1088 137.469 60.2101 137.091 60.4128 136.76C60.6154 136.419 60.8874 136.147 61.2288 135.944C61.5701 135.741 61.9541 135.64 62.3808 135.64C62.8074 135.64 63.1914 135.741 63.5328 135.944C63.8848 136.147 64.1621 136.419 64.3648 136.76C64.5674 137.091 64.6688 137.469 64.6688 137.896C64.6688 138.323 64.5674 138.707 64.3648 139.048C64.1621 139.389 63.8901 139.661 63.5488 139.864C63.2074 140.067 62.8181 140.168 62.3808 140.168ZM62.3808 138.808C62.6474 138.808 62.8608 138.723 63.0208 138.552C63.1808 138.381 63.2608 138.163 63.2608 137.896C63.2608 137.629 63.1754 137.416 63.0048 137.256C62.8448 137.085 62.6368 137 62.3808 137C62.1248 137 61.9168 137.085 61.7568 137.256C61.5968 137.416 61.5168 137.629 61.5168 137.896C61.5168 138.163 61.5968 138.381 61.7568 138.552C61.9168 138.723 62.1248 138.808 62.3808 138.808ZM67.0688 147.16C66.6528 147.16 66.2688 147.059 65.9168 146.856C65.5754 146.653 65.3034 146.381 65.1008 146.04C64.8981 145.699 64.7968 145.315 64.7968 144.888C64.7968 144.461 64.8981 144.083 65.1008 143.752C65.3034 143.411 65.5754 143.139 65.9168 142.936C66.2581 142.733 66.6421 142.632 67.0688 142.632C67.4954 142.632 67.8794 142.733 68.2208 142.936C68.5728 143.139 68.8501 143.411 69.0528 143.752C69.2554 144.083 69.3568 144.461 69.3568 144.888C69.3568 145.315 69.2554 145.699 69.0528 146.04C68.8501 146.381 68.5781 146.653 68.2368 146.856C67.8954 147.059 67.5061 147.16 67.0688 147.16ZM67.0688 145.8C67.3354 145.8 67.5488 145.715 67.7088 145.544C67.8794 145.373 67.9648 145.155 67.9648 144.888C67.9648 144.632 67.8794 144.419 67.7088 144.248C67.5381 144.077 67.3248 143.992 67.0688 143.992C66.8128 143.992 66.6048 144.077 66.4448 144.248C66.2848 144.419 66.2048 144.632 66.2048 144.888C66.2048 145.155 66.2848 145.373 66.4448 145.544C66.6048 145.715 66.8128 145.8 67.0688 145.8ZM60.2688 147L67.4528 135.8H69.1968L62.0128 147H60.2688Z" fill="#262A2F"/>
<path d="M86.336 147.16C85.4507 147.16 84.6987 147 84.08 146.68C83.4613 146.36 82.9067 145.891 82.416 145.272L83.664 144.024C83.9733 144.472 84.3413 144.824 84.768 145.08C85.1947 145.325 85.7387 145.448 86.4 145.448C87.0187 145.448 87.5093 145.32 87.872 145.064C88.2453 144.808 88.432 144.456 88.432 144.008C88.432 143.635 88.336 143.331 88.144 143.096C87.952 142.861 87.696 142.669 87.376 142.52C87.0667 142.36 86.72 142.221 86.336 142.104C85.9627 141.976 85.584 141.837 85.2 141.688C84.8267 141.528 84.48 141.331 84.16 141.096C83.8507 140.861 83.6 140.557 83.408 140.184C83.216 139.811 83.12 139.336 83.12 138.76C83.12 138.099 83.28 137.539 83.6 137.08C83.9307 136.611 84.3733 136.253 84.928 136.008C85.4827 135.763 86.1013 135.64 86.784 135.64C87.52 135.64 88.176 135.784 88.752 136.072C89.3387 136.36 89.8133 136.728 90.176 137.176L88.928 138.424C88.608 138.061 88.272 137.795 87.92 137.624C87.5787 137.443 87.184 137.352 86.736 137.352C86.1813 137.352 85.744 137.464 85.424 137.688C85.1147 137.912 84.96 138.227 84.96 138.632C84.96 138.973 85.056 139.251 85.248 139.464C85.44 139.667 85.6907 139.843 86 139.992C86.32 140.131 86.6667 140.264 87.04 140.392C87.424 140.52 87.8027 140.664 88.176 140.824C88.56 140.984 88.9067 141.192 89.216 141.448C89.536 141.693 89.792 142.013 89.984 142.408C90.176 142.803 90.272 143.299 90.272 143.896C90.272 144.899 89.9147 145.693 89.2 146.28C88.496 146.867 87.5413 147.16 86.336 147.16ZM95.3089 147.16C94.5515 147.16 93.8635 146.984 93.2449 146.632C92.6369 146.28 92.1569 145.8 91.8049 145.192C91.4529 144.584 91.2769 143.907 91.2769 143.16C91.2769 142.403 91.4529 141.725 91.8049 141.128C92.1569 140.52 92.6369 140.04 93.2449 139.688C93.8635 139.336 94.5515 139.16 95.3089 139.16C95.9062 139.16 96.4609 139.277 96.9729 139.512C97.4955 139.736 97.9382 140.061 98.3009 140.488L97.1489 141.656C96.9249 141.389 96.6529 141.192 96.3329 141.064C96.0235 140.925 95.6822 140.856 95.3089 140.856C94.8715 140.856 94.4822 140.957 94.1409 141.16C93.8102 141.352 93.5489 141.619 93.3569 141.96C93.1755 142.301 93.0849 142.701 93.0849 143.16C93.0849 143.608 93.1755 144.008 93.3569 144.36C93.5489 144.701 93.8102 144.973 94.1409 145.176C94.4822 145.368 94.8715 145.464 95.3089 145.464C95.6822 145.464 96.0235 145.4 96.3329 145.272C96.6529 145.133 96.9249 144.931 97.1489 144.664L98.3009 145.832C97.9382 146.259 97.4955 146.589 96.9729 146.824C96.4609 147.048 95.9062 147.16 95.3089 147.16ZM102.934 147.16C102.187 147.16 101.51 146.984 100.902 146.632C100.294 146.269 99.8082 145.784 99.4455 145.176C99.0935 144.568 98.9175 143.891 98.9175 143.144C98.9175 142.397 99.0935 141.725 99.4455 141.128C99.8082 140.531 100.294 140.056 100.902 139.704C101.51 139.341 102.187 139.16 102.934 139.16C103.691 139.16 104.374 139.336 104.982 139.688C105.59 140.04 106.07 140.52 106.422 141.128C106.784 141.725 106.966 142.397 106.966 143.144C106.966 143.891 106.784 144.568 106.422 145.176C106.07 145.784 105.59 146.269 104.982 146.632C104.374 146.984 103.691 147.16 102.934 147.16ZM102.934 145.464C103.371 145.464 103.755 145.368 104.086 145.176C104.427 144.973 104.688 144.696 104.87 144.344C105.062 143.992 105.158 143.592 105.158 143.144C105.158 142.696 105.062 142.301 104.87 141.96C104.678 141.619 104.416 141.352 104.086 141.16C103.755 140.957 103.371 140.856 102.934 140.856C102.507 140.856 102.123 140.957 101.782 141.16C101.451 141.352 101.19 141.619 100.998 141.96C100.816 142.301 100.726 142.696 100.726 143.144C100.726 143.592 100.816 143.992 100.998 144.344C101.19 144.696 101.451 144.973 101.782 145.176C102.123 145.368 102.507 145.464 102.934 145.464ZM108.429 147V139.32H110.189V147H108.429ZM110.189 142.728L109.581 142.424C109.581 141.453 109.794 140.669 110.221 140.072C110.658 139.464 111.314 139.16 112.189 139.16C112.573 139.16 112.92 139.229 113.229 139.368C113.538 139.507 113.826 139.731 114.093 140.04L112.941 141.224C112.802 141.075 112.648 140.968 112.477 140.904C112.306 140.84 112.109 140.808 111.885 140.808C111.394 140.808 110.989 140.963 110.669 141.272C110.349 141.581 110.189 142.067 110.189 142.728ZM118.278 147.16C117.51 147.16 116.817 146.989 116.198 146.648C115.59 146.296 115.105 145.816 114.742 145.208C114.39 144.6 114.214 143.917 114.214 143.16C114.214 142.403 114.39 141.725 114.742 141.128C115.094 140.52 115.569 140.04 116.166 139.688C116.774 139.336 117.446 139.16 118.182 139.16C118.897 139.16 119.526 139.325 120.07 139.656C120.625 139.987 121.057 140.44 121.366 141.016C121.686 141.592 121.846 142.248 121.846 142.984C121.846 143.112 121.836 143.245 121.814 143.384C121.804 143.512 121.782 143.656 121.75 143.816H115.446V142.376H120.838L120.182 142.952C120.161 142.483 120.07 142.088 119.91 141.768C119.75 141.448 119.521 141.203 119.222 141.032C118.934 140.861 118.577 140.776 118.15 140.776C117.702 140.776 117.313 140.872 116.982 141.064C116.652 141.256 116.396 141.528 116.214 141.88C116.033 142.221 115.942 142.632 115.942 143.112C115.942 143.592 116.038 144.013 116.23 144.376C116.422 144.739 116.694 145.021 117.046 145.224C117.398 145.416 117.804 145.512 118.262 145.512C118.657 145.512 119.02 145.443 119.35 145.304C119.692 145.165 119.98 144.963 120.214 144.696L121.334 145.832C120.961 146.269 120.508 146.6 119.974 146.824C119.441 147.048 118.876 147.16 118.278 147.16Z" fill="#262A2F"/>
<rect x="234" y="129" width="24" height="24" rx="12" fill="white"/>
<path d="M245.625 150C243.771 150 241.958 149.45 240.417 148.42C238.875 147.39 237.673 145.926 236.964 144.213C236.254 142.5 236.068 140.615 236.43 138.796C236.792 136.977 237.685 135.307 238.996 133.996C240.307 132.685 241.977 131.792 243.796 131.43C245.615 131.068 247.5 131.254 249.213 131.964C250.926 132.673 252.39 133.875 253.42 135.417C254.45 136.958 255 138.771 255 140.625C254.997 143.111 254.008 145.493 252.251 147.251C250.493 149.008 248.111 149.997 245.625 150ZM245.625 132.292C243.977 132.292 242.366 132.78 240.995 133.696C239.625 134.612 238.557 135.913 237.926 137.436C237.295 138.959 237.13 140.634 237.452 142.251C237.773 143.867 238.567 145.352 239.732 146.518C240.898 147.683 242.383 148.477 243.999 148.798C245.616 149.12 247.291 148.955 248.814 148.324C250.337 147.693 251.638 146.625 252.554 145.255C253.47 143.884 253.958 142.273 253.958 140.625C253.956 138.416 253.077 136.298 251.515 134.735C249.952 133.173 247.834 132.294 245.625 132.292Z" fill="#A1AAAD"/>
<path d="M248.228 140.625C246.985 140.625 244.061 139.085 244.061 136.979C244.061 136.012 244.445 135.085 245.129 134.401C245.813 133.717 246.74 133.333 247.707 133.333C248.674 133.333 249.601 133.717 250.285 134.401C250.969 135.085 251.353 136.012 251.353 136.979C251.353 138.942 249.634 140.625 248.228 140.625ZM247.707 134.375C247.016 134.376 246.355 134.65 245.866 135.138C245.378 135.627 245.104 136.288 245.103 136.979C245.103 138.316 247.377 139.583 248.228 139.583C248.922 139.583 250.311 138.457 250.311 136.979C250.31 136.288 250.036 135.627 249.547 135.138C249.059 134.65 248.397 134.376 247.707 134.375Z" fill="#A1AAAD"/>
<path d="M247.707 147.916C246.342 147.916 245.083 146.696 244.496 146.028L243.402 146.849C243.144 147.044 242.832 147.153 242.509 147.162C242.186 147.171 241.867 147.08 241.598 146.901L240.649 146.269C240.573 146.218 240.512 146.148 240.471 146.066C240.43 145.985 240.412 145.894 240.418 145.803C240.423 145.711 240.453 145.623 240.503 145.547C240.554 145.471 240.623 145.41 240.705 145.369L241.637 144.903L242.746 143.425C242.917 143.195 243.148 143.017 243.414 142.911C243.68 142.804 243.97 142.773 244.252 142.822L245.793 143.034L243.849 141.922C243.545 141.749 243.323 141.462 243.23 141.125C243.138 140.787 243.183 140.427 243.356 140.123C243.529 139.819 243.816 139.597 244.153 139.504C244.49 139.412 244.851 139.457 245.155 139.63L247.177 140.567L247.707 140.303V140.104H248.749V140.625C248.749 140.722 248.723 140.817 248.672 140.9C248.621 140.983 248.548 141.05 248.461 141.094L247.419 141.614C247.349 141.649 247.272 141.668 247.194 141.669C247.116 141.67 247.038 141.654 246.968 141.621L244.695 140.57C244.678 140.562 244.661 140.553 244.643 140.544C244.607 140.522 244.567 140.509 244.526 140.505C244.485 140.502 244.444 140.507 244.405 140.521C244.366 140.535 244.331 140.558 244.302 140.588C244.273 140.618 244.251 140.654 244.238 140.693C244.218 140.754 244.22 140.819 244.243 140.879C244.265 140.938 244.308 140.988 244.363 141.02L247.447 142.777C247.526 142.823 247.592 142.889 247.638 142.968C247.683 143.047 247.707 143.137 247.707 143.229V143.75C247.707 143.824 247.691 143.898 247.66 143.965C247.63 144.033 247.585 144.094 247.528 144.142C247.473 144.192 247.407 144.228 247.335 144.249C247.264 144.271 247.189 144.276 247.115 144.265L244.094 143.849C243.998 143.831 243.899 143.841 243.808 143.876C243.717 143.911 243.637 143.97 243.577 144.048L242.395 145.625C242.346 145.691 242.283 145.744 242.211 145.781L241.972 145.9L242.174 146.035C242.264 146.095 242.37 146.126 242.478 146.123C242.585 146.12 242.69 146.084 242.776 146.019L244.27 144.896C244.38 144.813 244.519 144.777 244.656 144.797C244.793 144.816 244.916 144.889 244.999 145C245.392 145.521 246.644 146.875 247.707 146.875C251.344 146.875 251.871 141.16 251.874 141.102V141.085C251.875 140.694 251.787 140.309 251.618 139.956C251.449 139.604 251.202 139.295 250.897 139.051L250.115 138.426L250.766 137.613L251.547 138.238C251.975 138.579 252.32 139.012 252.557 139.505C252.794 139.998 252.917 140.538 252.915 141.085V141.146C252.891 141.463 252.3 147.916 247.707 147.916Z" fill="#A1AAAD"/>
<rect opacity="0.6" x="40" y="225" width="13" height="30" rx="6.5" fill="#79BEDA"/>
<rect x="65.25" y="182" width="13" height="73" rx="6.5" fill="#05719C"/>
<rect opacity="0.6" x="90.5" y="217" width="13" height="38" rx="6.5" fill="#79BEDA"/>
<rect x="115.75" y="225" width="13" height="30" rx="6.5" fill="#05719C"/>
<rect opacity="0.6" x="141" y="193" width="13" height="62" rx="6.5" fill="#79BEDA"/>
<rect x="166.25" y="211" width="13" height="44" rx="6.5" fill="#05719C"/>
<rect opacity="0.6" x="191.5" y="200" width="13" height="55" rx="6.5" fill="#79BEDA"/>
<rect x="216.75" y="177" width="13" height="78" rx="6.5" fill="#05719C"/>
<rect opacity="0.6" x="242" y="205" width="13" height="50" rx="6.5" fill="#79BEDA"/>
</svg>
