<svg width="60" height="60" viewBox="0 0 60 60" fill="none" xmlns="http://www.w3.org/2000/svg">
<rect width="60" height="60" rx="16" fill="white"/>
<path d="M21.2314 32.2072L26.6841 23.5137H22.214L19.0835 28.7714L21.2314 32.2072Z" fill="#262A2F"/>
<path d="M14.7351 25.4565L13.6002 23.5137H9L15.8754 34.5212V41.688H19.8141V34.2962L14.7351 25.4565Z" fill="#262A2F"/>
<path d="M41.9575 18V21.6888H47.3687V27.1856H51.0002V18H41.9575Z" fill="url(#paint0_linear_1444_36176)"/>
<path d="M40.9552 30.1998C41.2652 30.9336 41.4341 31.7462 41.4341 32.6009V32.6515C41.4341 35.7668 39.2363 38.3113 36.0671 38.3113C32.8979 38.3113 30.6476 35.7162 30.6476 32.6009V32.5475C30.6476 29.4322 32.8453 26.8877 36.0145 26.8877C37.2767 26.8877 38.3921 27.301 39.2779 27.9927L42.0347 25.1923C40.4431 23.9467 38.3921 23.2017 36.0643 23.2017C30.5424 23.2017 26.5317 27.4332 26.5317 32.6009V32.6515C26.5317 37.8193 30.4926 42.0002 36.0145 42.0002C41.5365 42.0002 45.5471 37.7687 45.5471 32.6009V32.5475C45.5471 30.5541 44.9576 28.7068 43.9141 27.1914L40.9552 30.1998Z" fill="#262A2F"/>
<defs>
<linearGradient id="paint0_linear_1444_36176" x1="41.598" y1="19.5583" x2="52.8319" y2="19.7779" gradientUnits="userSpaceOnUse">
<stop stop-color="#FF9F11"/>
<stop offset="1" stop-color="#FFCC45"/>
</linearGradient>
</defs>
</svg>
