<?xml version="1.0" encoding="UTF-8"?>
<svg xmlns="http://www.w3.org/2000/svg" xmlns:xlink="http://www.w3.org/1999/xlink" width="119px" height="60px" viewBox="0 0 119 60" version="1.1">
<defs>
<radialGradient id="radial0" gradientUnits="userSpaceOnUse" cx="0" cy="0" fx="0" fy="0" r="1" gradientTransform="matrix(39.7729,0,0,39.7842,115.505,29.213)">
<stop offset="0" style="stop-color:rgb(100%,100%,100%);stop-opacity:1;"/>
<stop offset="0.27" style="stop-color:rgb(99.215686%,99.607843%,100%);stop-opacity:1;"/>
<stop offset="0.41" style="stop-color:rgb(96.078431%,98.431373%,99.607843%);stop-opacity:1;"/>
<stop offset="0.52" style="stop-color:rgb(90.980392%,96.470588%,98.823529%);stop-opacity:1;"/>
<stop offset="0.61" style="stop-color:rgb(83.529412%,93.72549%,98.039216%);stop-opacity:1;"/>
<stop offset="0.69" style="stop-color:rgb(73.72549%,90.196078%,96.862745%);stop-opacity:1;"/>
<stop offset="0.77" style="stop-color:rgb(61.960784%,85.882353%,95.686275%);stop-opacity:1;"/>
<stop offset="0.84" style="stop-color:rgb(47.843137%,80.784314%,94.117647%);stop-opacity:1;"/>
<stop offset="0.9" style="stop-color:rgb(31.372549%,74.901961%,92.156863%);stop-opacity:1;"/>
<stop offset="0.96" style="stop-color:rgb(13.72549%,68.235294%,90.196078%);stop-opacity:1;"/>
<stop offset="1" style="stop-color:rgb(0%,63.137255%,88.627451%);stop-opacity:1;"/>
</radialGradient>
<radialGradient id="radial1" gradientUnits="userSpaceOnUse" cx="0" cy="0" fx="0" fy="0" r="1" gradientTransform="matrix(14.363709,-4.982389,5.847989,16.859145,93.3555,27.1986)">
<stop offset="0" style="stop-color:rgb(100%,100%,100%);stop-opacity:1;"/>
<stop offset="0.27" style="stop-color:rgb(99.215686%,99.607843%,100%);stop-opacity:1;"/>
<stop offset="0.41" style="stop-color:rgb(96.078431%,98.431373%,99.607843%);stop-opacity:1;"/>
<stop offset="0.52" style="stop-color:rgb(90.980392%,96.470588%,98.823529%);stop-opacity:1;"/>
<stop offset="0.61" style="stop-color:rgb(83.529412%,93.72549%,98.039216%);stop-opacity:1;"/>
<stop offset="0.69" style="stop-color:rgb(73.72549%,90.196078%,96.862745%);stop-opacity:1;"/>
<stop offset="0.77" style="stop-color:rgb(61.960784%,85.882353%,95.686275%);stop-opacity:1;"/>
<stop offset="0.84" style="stop-color:rgb(47.843137%,80.784314%,94.117647%);stop-opacity:1;"/>
<stop offset="0.9" style="stop-color:rgb(31.372549%,74.901961%,92.156863%);stop-opacity:1;"/>
<stop offset="0.96" style="stop-color:rgb(13.72549%,68.235294%,90.196078%);stop-opacity:1;"/>
<stop offset="1" style="stop-color:rgb(0%,63.137255%,88.627451%);stop-opacity:1;"/>
</radialGradient>
</defs>
<g id="surface1">
<path style=" stroke:none;fill-rule:nonzero;fill:rgb(7.45098%,7.058824%,5.098039%);fill-opacity:1;" d="M 0.953125 59.113281 C 7.84375 55.25 28.980469 48.757812 44.761719 53.953125 C 60.542969 59.148438 73.839844 62.703125 83.953125 56.121094 C 86.457031 57.195312 87.445312 57.226562 89.929688 54.765625 C 92.414062 52.308594 97.640625 47.96875 96.726562 45.816406 C 119.402344 39.234375 126.597656 10.09375 105.417969 1.609375 C 84.242188 -6.875 75.546875 20.378906 84.761719 31.992188 C 91.132812 39.976562 86.691406 41.804688 86.691406 41.804688 C 85.308594 40.910156 81.574219 47 79.6875 48.488281 C 77.800781 49.980469 78.589844 51.703125 78.589844 51.703125 C 77.386719 53.921875 69.855469 59.601562 47.679688 51.222656 C 25.507812 42.847656 0.953125 59.113281 0.953125 59.113281 Z M 0.953125 59.113281 "/>
<path style=" stroke:none;fill-rule:nonzero;fill:url(#radial0);" d="M 88.21875 7.183594 C 83.683594 13.273438 82.476562 23.695312 87.40625 29.90625 C 89.296875 32.28125 91.171875 35.078125 91.566406 38.160156 C 91.894531 40.820312 90.605469 44.144531 87.761719 44.882812 C 86.625 45.171875 85.824219 46.550781 85.09375 47.453125 C 84.03125 48.765625 83.003906 50.191406 81.671875 51.246094 C 81.449219 51.417969 82.074219 52.027344 82.058594 52.28125 C 82.039062 52.582031 81.621094 53.082031 81.476562 53.351562 C 80.972656 54.261719 80.304688 55.066406 79.507812 55.730469 C 80.644531 55.246094 81.734375 54.660156 82.765625 53.976562 C 83.5 53.5 83.664062 53.175781 84.453125 53.511719 C 85.148438 53.8125 85.945312 54.304688 86.695312 54.371094 C 87.351562 54.117188 87.878906 53.433594 88.371094 52.964844 C 89.773438 51.617188 91.210938 50.300781 92.542969 48.886719 C 93.027344 48.371094 94.476562 47.152344 94.160156 46.40625 L 93.175781 44.109375 C 98.914062 42.449219 104.25 40.4375 108.601562 36.152344 C 112.90625 31.917969 115.964844 26.0625 116.265625 19.964844 C 116.609375 12.785156 112.652344 6.683594 106.152344 3.722656 C 99.734375 0.796875 92.609375 1.273438 88.199219 7.191406 "/>
<path style=" stroke:none;fill-rule:nonzero;fill:rgb(7.45098%,7.058824%,5.098039%);fill-opacity:1;" d="M 105.035156 25.152344 C 105.257812 20.675781 102.617188 14.445312 97.9375 12.921875 C 93.257812 11.394531 92.917969 17.789062 96.878906 22.726562 C 100.835938 27.664062 104.921875 27.363281 105.035156 25.152344 Z M 105.035156 25.152344 "/>
<path style=" stroke:none;fill-rule:nonzero;fill:rgb(100%,100%,100%);fill-opacity:1;" d="M 102.613281 20.371094 C 103.035156 20.511719 103.4375 20.699219 103.820312 20.925781 C 102.992188 18.03125 101.09375 15.214844 98.359375 14.324219 C 94.453125 13.046875 94.171875 18.386719 97.476562 22.507812 C 98.117188 23.324219 98.871094 24.050781 99.710938 24.667969 C 98.9375 21.796875 99.898438 19.484375 102.613281 20.371094 Z M 102.613281 20.371094 "/>
<path style=" stroke:none;fill-rule:nonzero;fill:rgb(7.45098%,7.058824%,5.098039%);fill-opacity:1;" d="M 104.648438 25.398438 C 104.683594 24.410156 104.558594 23.421875 104.277344 22.472656 C 103.964844 22.289062 103.632812 22.136719 103.289062 22.023438 C 101.085938 21.304688 100.304688 23.183594 100.933594 25.511719 C 102.925781 26.933594 104.589844 26.558594 104.648438 25.398438 Z M 104.648438 25.398438 "/>
<path style=" stroke:none;fill-rule:nonzero;fill:rgb(100%,100%,100%);fill-opacity:1;" d="M 101.375 22.867188 C 101.160156 23.421875 100.207031 23.59375 99.242188 23.253906 C 98.277344 22.910156 97.660156 22.1875 97.871094 21.632812 C 98.082031 21.078125 99.039062 20.910156 100.007812 21.25 C 100.976562 21.589844 101.585938 22.3125 101.375 22.867188 Z M 101.375 22.867188 "/>
<path style=" stroke:none;fill-rule:nonzero;fill:rgb(7.45098%,7.058824%,5.098039%);fill-opacity:1;" d="M 108.886719 24.925781 C 107.152344 21.773438 106.546875 15.960938 108.863281 12.59375 C 111.1875 9.230469 113.675781 13.734375 113.015625 19.242188 C 112.359375 24.746094 109.746094 26.488281 108.886719 24.925781 Z M 108.886719 24.925781 "/>
<path style=" stroke:none;fill-rule:nonzero;fill:rgb(100%,100%,100%);fill-opacity:1;" d="M 108.675781 20.277344 C 108.464844 20.589844 108.285156 20.917969 108.132812 21.261719 C 107.609375 18.757812 107.761719 15.789062 109.117188 13.820312 C 111.054688 11.011719 113.132812 14.773438 112.585938 19.367188 C 112.484375 20.269531 112.285156 21.160156 111.988281 22.019531 C 111.425781 19.550781 110.011719 18.328125 108.675781 20.277344 Z M 108.675781 20.277344 "/>
<path style=" stroke:none;fill-rule:nonzero;fill:rgb(7.45098%,7.058824%,5.098039%);fill-opacity:1;" d="M 109.132812 24.113281 C 108.660156 23.21875 108.320312 22.257812 108.128906 21.261719 C 108.277344 20.917969 108.457031 20.589844 108.667969 20.277344 C 110.015625 18.328125 111.429688 19.550781 111.980469 22.019531 C 111.109375 24.476562 109.6875 25.117188 109.132812 24.113281 Z M 109.132812 24.113281 "/>
<path style=" stroke:none;fill-rule:nonzero;fill:rgb(7.45098%,7.058824%,5.098039%);fill-opacity:1;" d="M 105.808594 25.800781 C 108.296875 25.472656 113.871094 25.167969 109.773438 29.085938 C 113.101562 26.894531 112.84375 24.898438 110.722656 24.882812 C 109.042969 24.914062 107.382812 25.222656 105.808594 25.800781 Z M 105.808594 25.800781 "/>
<path style=" stroke:none;fill-rule:nonzero;fill:rgb(7.45098%,7.058824%,5.098039%);fill-opacity:1;" d="M 108.128906 30.746094 C 107.09375 30.964844 101.859375 31.996094 97.644531 28.015625 C 98.828125 33.035156 101.433594 36.09375 103.113281 36.828125 C 104.792969 37.5625 105.90625 37.1875 105.632812 35.304688 C 105.253906 32.742188 108.128906 30.746094 108.128906 30.746094 Z M 108.128906 30.746094 "/>
<path style=" stroke:none;fill-rule:nonzero;fill:rgb(7.45098%,7.058824%,5.098039%);fill-opacity:1;" d="M 113.566406 12.335938 C 113.046875 10.640625 110.96875 9.378906 108.644531 10.726562 C 111.175781 7.03125 114.023438 8.21875 114.585938 10.054688 C 115.117188 11.796875 114.253906 14.222656 113.550781 15.753906 C 113.839844 14.632812 113.84375 13.457031 113.566406 12.335938 Z M 113.566406 12.335938 "/>
<path style=" stroke:none;fill-rule:nonzero;fill:rgb(100%,100%,100%);fill-opacity:1;" d="M 110.417969 20.738281 C 110.277344 21.113281 109.628906 21.230469 108.976562 20.996094 C 108.324219 20.765625 107.90625 20.277344 108.050781 19.902344 C 108.195312 19.53125 108.84375 19.414062 109.496094 19.644531 C 110.148438 19.875 110.5625 20.367188 110.417969 20.738281 Z M 110.417969 20.738281 "/>
<path style=" stroke:none;fill-rule:nonzero;fill:rgb(100%,100%,100%);fill-opacity:1;" d="M 93.324219 11.269531 C 94.480469 9.679688 96.03125 8.410156 97.820312 7.589844 C 100.464844 5.441406 100.132812 2.902344 95.386719 4.484375 C 95.386719 4.484375 95.261719 4.484375 95.058594 4.507812 C 93.234375 5.28125 91.652344 6.539062 90.488281 8.140625 C 86.578125 13.394531 85.542969 22.367188 89.785156 27.714844 C 90.300781 28.371094 90.8125 29.03125 91.28125 29.75 C 88.425781 24.089844 89.691406 16.144531 93.324219 11.269531 Z M 93.324219 11.269531 "/>
<path style=" stroke:none;fill-rule:nonzero;fill:url(#radial1);" d="M 102.335938 37.671875 C 102.921875 37.917969 103.550781 38.039062 104.1875 38.03125 C 105.269531 38.234375 105.5 38.851562 103.820312 39 L 103.714844 39.03125 C 103.074219 39.058594 102.4375 38.945312 101.847656 38.703125 C 99.980469 37.925781 98.542969 35.988281 99.1875 34.3125 C 99.269531 34.105469 99.339844 33.898438 99.398438 33.683594 C 99.21875 35.277344 100.601562 36.953125 102.335938 37.671875 Z M 102.335938 37.671875 "/>
<path style=" stroke:none;fill-rule:nonzero;fill:rgb(7.45098%,7.058824%,5.098039%);fill-opacity:1;" d="M 92.800781 12.960938 C 93.402344 11.277344 95.738281 10.0625 98.328125 11.433594 C 95.53125 7.695312 92.335938 8.835938 91.6875 10.660156 C 91.070312 12.398438 92.015625 14.839844 92.78125 16.378906 C 92.511719 15.183594 92.441406 13.972656 92.800781 12.960938 Z M 92.800781 12.960938 "/>
</g>
</svg>
