<svg width="119" height="60" viewBox="0 0 119 60" fill="none" xmlns="http://www.w3.org/2000/svg">
<path d="M0.952637 59.1142C7.84569 55.2497 28.9811 48.7586 44.7629 53.9528C60.5447 59.1471 73.8417 62.7029 83.9515 56.1198C86.456 57.1935 87.444 57.2263 89.9288 54.7671C92.4136 52.3079 97.6425 47.9673 96.7267 45.8167C119.402 39.2336 126.597 10.094 105.418 1.60982C84.2404 -6.87433 75.5486 20.3807 84.7623 31.9938C91.1334 39.9756 86.6923 41.8045 86.6923 41.8045C85.3105 40.9114 81.5751 46.9987 79.6877 48.4893C77.8003 49.98 78.5914 51.7037 78.5914 51.7037C77.3867 53.9233 69.8536 59.6002 47.681 51.2244C25.5083 42.8486 0.952637 59.1142 0.952637 59.1142Z" fill="#13120D"/>
<path d="M88.2188 7.18511C83.6825 13.2724 82.4779 23.697 87.4048 29.9058C89.2987 32.2797 91.173 35.0771 91.5669 38.1601C91.8951 40.8197 90.6051 44.1457 87.7626 44.8811C86.6269 45.1734 85.8227 46.5524 85.094 47.452C84.0305 48.7653 83.0031 50.1903 81.6737 51.2443C81.4505 51.4183 82.0742 52.029 82.0577 52.2818C82.0381 52.5839 81.6212 53.0829 81.4768 53.3522C80.9734 54.2599 80.3056 55.066 79.5073 55.7293C80.6451 55.2457 81.7361 54.6588 82.7668 53.976C83.4987 53.4999 83.6628 53.1749 84.4539 53.5131C85.1465 53.8118 85.9441 54.3043 86.6958 54.37C87.3523 54.1172 87.8775 53.4343 88.3698 52.9647C89.7747 51.6186 91.2091 50.3019 92.5418 48.8868C93.0275 48.3713 94.4784 47.1532 94.16 46.4079L93.1753 44.1096C98.9129 42.4482 104.25 40.4388 108.603 36.154C112.906 31.9185 115.965 26.061 116.264 19.9639C116.608 12.7865 112.653 6.68276 106.154 3.72447C99.7335 0.79573 92.6107 1.27181 88.1991 7.19168" fill="url(#paint0_radial_1444_36224)"/>
<path d="M105.035 25.1507C105.258 20.6755 102.619 14.447 97.938 12.9203C93.2573 11.3935 92.9192 17.7895 96.8778 22.7276C100.836 27.6658 104.923 27.3637 105.035 25.1507Z" fill="#13120D"/>
<path d="M102.615 20.3705C103.035 20.5123 103.439 20.6983 103.82 20.9254C102.993 18.0328 101.095 15.2157 98.3579 14.3226C94.4518 13.0487 94.1728 18.3874 97.4749 22.508C98.119 23.3259 98.871 24.0526 99.7103 24.6684C98.9356 21.7955 99.8974 19.484 102.615 20.3705Z" fill="white"/>
<path d="M104.65 25.398C104.685 24.409 104.558 23.4209 104.276 22.4726C103.964 22.2893 103.634 22.1385 103.291 22.0227C101.085 21.3037 100.304 23.1818 100.934 25.5129C102.926 26.9346 104.591 26.557 104.65 25.398Z" fill="#13120D"/>
<path d="M101.374 22.8687C101.161 23.4203 100.206 23.5943 99.2405 23.2528C98.2755 22.9114 97.6617 22.1891 97.8718 21.6342C98.0819 21.0793 99.0403 20.9086 100.009 21.25C100.977 21.5915 101.584 22.3138 101.374 22.8687Z" fill="white"/>
<path d="M108.888 24.9274C107.152 21.7721 106.545 15.9606 108.865 12.5951C111.186 9.22972 113.677 13.7345 113.017 19.2406C112.358 24.7468 109.748 26.4902 108.888 24.9274Z" fill="#13120D"/>
<path d="M108.676 20.2781C108.465 20.5889 108.284 20.9187 108.134 21.2631C107.609 18.7579 107.763 15.7897 109.119 13.8197C111.055 11.0125 113.133 14.7719 112.585 19.3686C112.485 20.2714 112.285 21.1601 111.988 22.0182C111.426 19.5492 110.012 18.3278 108.676 20.2781Z" fill="white"/>
<path d="M109.132 24.1135C108.661 23.2172 108.322 22.2572 108.127 21.2635C108.277 20.9192 108.458 20.5894 108.669 20.2785C110.015 18.3282 111.43 19.5496 111.981 22.0187C111.108 24.4747 109.687 25.1182 109.132 24.1135Z" fill="#13120D"/>
<path d="M105.807 25.8007C108.298 25.4723 113.872 25.167 109.772 29.084C113.101 26.894 112.845 24.8978 110.721 24.8813C109.043 24.9126 107.383 25.2233 105.807 25.8007Z" fill="#13120D"/>
<path d="M108.129 30.7469C107.092 30.9636 101.86 31.9945 97.645 28.0151C98.83 33.0354 101.433 36.0921 103.114 36.8276C104.794 37.5631 105.907 37.1888 105.631 35.3042C105.254 32.7431 108.129 30.7469 108.129 30.7469Z" fill="#13120D"/>
<path d="M113.566 12.3352C113.048 10.641 110.97 9.38021 108.643 10.7264C111.177 7.03262 114.022 8.21791 114.584 10.0533C115.119 11.7968 114.255 14.2231 113.55 15.7532C113.839 14.6329 113.845 13.4582 113.566 12.3352Z" fill="#13120D"/>
<path d="M110.417 20.738C110.276 21.1123 109.629 21.2305 108.976 20.9974C108.323 20.7643 107.906 20.2783 108.051 19.904C108.195 19.5297 108.842 19.4148 109.495 19.6447C110.148 19.8745 110.562 20.367 110.417 20.738Z" fill="white"/>
<path d="M93.3233 11.2698C94.4822 9.67774 96.0307 8.41033 97.8202 7.58915C100.463 5.44185 100.134 2.90055 95.3879 4.48312C95.3879 4.48312 95.2632 4.48311 95.0597 4.50938C93.234 5.28175 91.6532 6.53718 90.4873 8.14075C86.5779 13.3941 85.544 22.3675 89.7849 27.716C90.3002 28.3727 90.8122 29.0294 91.2816 29.7517C88.4259 24.0912 89.6897 16.1455 93.3233 11.2698Z" fill="white"/>
<path d="M102.335 37.6738C102.921 37.9191 103.552 38.0409 104.187 38.0317C105.27 38.2353 105.5 38.8526 103.822 39.0003L103.714 39.0299C103.075 39.0571 102.438 38.9451 101.846 38.7015C99.982 37.9267 98.5443 35.9895 99.1877 34.3117C99.2694 34.1068 99.3396 33.8974 99.3977 33.6846C99.2205 35.277 100.602 36.9515 102.335 37.6738Z" fill="url(#paint1_radial_1444_36224)"/>
<path d="M92.8006 12.96C93.4013 11.2757 95.7384 10.0608 98.3282 11.4333C95.5316 7.69683 92.3378 8.83614 91.6879 10.6617C91.0708 12.3986 92.0161 14.8381 92.7809 16.378C92.5117 15.1828 92.4395 13.9746 92.8006 12.96Z" fill="#13120D"/>
<defs>
<radialGradient id="paint0_radial_1444_36224" cx="0" cy="0" r="1" gradientUnits="userSpaceOnUse" gradientTransform="translate(115.505 29.213) scale(39.7729 39.7842)">
<stop stop-color="white"/>
<stop offset="0.27" stop-color="#FDFEFF"/>
<stop offset="0.41" stop-color="#F5FBFE"/>
<stop offset="0.52" stop-color="#E8F6FC"/>
<stop offset="0.61" stop-color="#D5EFFA"/>
<stop offset="0.69" stop-color="#BCE6F7"/>
<stop offset="0.77" stop-color="#9EDBF4"/>
<stop offset="0.84" stop-color="#7ACEF0"/>
<stop offset="0.9" stop-color="#50BFEB"/>
<stop offset="0.96" stop-color="#23AEE6"/>
<stop offset="1" stop-color="#00A1E2"/>
</radialGradient>
<radialGradient id="paint1_radial_1444_36224" cx="0" cy="0" r="1" gradientUnits="userSpaceOnUse" gradientTransform="translate(93.3555 27.1986) rotate(-19.1303) scale(15.2033 17.8446)">
<stop stop-color="white"/>
<stop offset="0.27" stop-color="#FDFEFF"/>
<stop offset="0.41" stop-color="#F5FBFE"/>
<stop offset="0.52" stop-color="#E8F6FC"/>
<stop offset="0.61" stop-color="#D5EFFA"/>
<stop offset="0.69" stop-color="#BCE6F7"/>
<stop offset="0.77" stop-color="#9EDBF4"/>
<stop offset="0.84" stop-color="#7ACEF0"/>
<stop offset="0.9" stop-color="#50BFEB"/>
<stop offset="0.96" stop-color="#23AEE6"/>
<stop offset="1" stop-color="#00A1E2"/>
</radialGradient>
</defs>
</svg>
