<svg xmlns="http://www.w3.org/2000/svg" width="119" height="60" fill="none"><path fill="#13120D" d="M.953 59.114c6.893-3.864 28.028-10.355 43.81-5.161 15.782 5.194 29.079 8.75 39.188 2.167 2.505 1.074 3.493 1.106 5.978-1.353 2.485-2.46 7.713-6.8 6.798-8.95 22.675-6.583 29.87-35.723 8.691-44.207-21.178-8.484-29.87 18.77-20.656 30.384 6.371 7.982 1.93 9.81 1.93 9.81-1.381-.893-5.117 5.195-7.004 6.685-1.888 1.491-1.097 3.215-1.097 3.215-1.204 2.22-8.737 7.896-30.91-.48C25.508 42.85.953 59.114.953 59.114Z"/><path fill="url(#a)" d="M88.219 7.185c-4.536 6.087-5.741 16.512-.814 22.72 1.894 2.375 3.768 5.172 4.162 8.255.328 2.66-.962 5.986-3.804 6.721-1.136.292-1.94 1.671-2.669 2.571-1.063 1.313-2.09 2.738-3.42 3.792-.224.174.4.785.384 1.038-.02.302-.437.8-.581 1.07a8.365 8.365 0 0 1-1.97 2.377 20.232 20.232 0 0 0 3.26-1.753c.732-.476.896-.801 1.687-.463.693.299 1.49.791 2.242.857.656-.253 1.181-.936 1.674-1.405 1.405-1.346 2.84-2.663 4.172-4.078.486-.516 1.936-1.734 1.618-2.48l-.985-2.297c5.738-1.662 11.075-3.671 15.428-7.956 4.303-4.236 7.362-10.093 7.661-16.19.344-7.177-3.611-13.281-10.11-16.24-6.42-2.928-13.543-2.452-17.955 3.468"/><path fill="#13120D" d="M105.035 25.15c.223-4.474-2.416-10.703-7.097-12.23-4.68-1.527-5.019 4.87-1.06 9.808 3.958 4.938 8.045 4.636 8.157 2.423Z"/><path fill="#fff" d="M102.615 20.37c.42.142.824.328 1.205.555-.827-2.892-2.725-5.71-5.462-6.602-3.906-1.274-4.185 4.064-.883 8.185a11.518 11.518 0 0 0 2.235 2.16c-.774-2.872.187-5.184 2.905-4.297Z"/><path fill="#13120D" d="M104.65 25.398a9.131 9.131 0 0 0-.374-2.925 5.276 5.276 0 0 0-.985-.45c-2.206-.72-2.987 1.159-2.357 3.49 1.992 1.422 3.657 1.044 3.716-.115Z"/><path fill="#fff" d="M101.374 22.869c-.213.551-1.168.725-2.133.384-.966-.342-1.58-1.064-1.37-1.619.21-.555 1.17-.725 2.138-.384.968.341 1.575 1.064 1.365 1.619Z"/><path fill="#13120D" d="M108.888 24.927c-1.736-3.155-2.343-8.966-.023-12.332 2.321-3.365 4.812 1.14 4.152 6.646-.659 5.506-3.269 7.25-4.129 5.686Z"/><path fill="#fff" d="M108.676 20.278c-.211.31-.392.64-.542.985-.525-2.505-.371-5.473.985-7.443 1.936-2.808 4.014.952 3.466 5.549-.1.902-.3 1.791-.597 2.65-.562-2.47-1.976-3.691-3.312-1.74Z"/><path fill="#13120D" d="M109.132 24.113a10.456 10.456 0 0 1-1.005-2.85c.15-.344.331-.674.542-.985 1.346-1.95 2.761-.728 3.312 1.74-.873 2.457-2.294 3.1-2.849 2.095ZM105.807 25.8c2.491-.328 8.065-.633 3.965 3.284 3.329-2.19 3.073-4.186.949-4.203a15.1 15.1 0 0 0-4.914.92ZM108.129 30.747c-1.037.217-6.269 1.247-10.484-2.732 1.185 5.02 3.788 8.077 5.469 8.813 1.68.735 2.793.36 2.517-1.524-.377-2.56 2.498-4.557 2.498-4.557ZM113.566 12.335c-.518-1.694-2.596-2.955-4.923-1.609 2.534-3.693 5.379-2.508 5.941-.673.535 1.744-.329 4.17-1.034 5.7a6.963 6.963 0 0 0 .016-3.418Z"/><path fill="#fff" d="M110.417 20.738c-.141.374-.788.492-1.441.26-.653-.234-1.07-.72-.925-1.094.144-.374.791-.49 1.444-.26.653.23 1.067.723.922 1.094ZM93.323 11.27a11.489 11.489 0 0 1 4.497-3.68c2.643-2.148 2.314-4.69-2.432-3.107 0 0-.125 0-.328.026a10.908 10.908 0 0 0-4.573 3.632c-3.91 5.253-4.943 14.226-.702 19.575.515.657 1.027 1.313 1.497 2.036-2.856-5.66-1.592-13.607 2.041-18.482Z"/><path fill="url(#b)" d="M102.335 37.674a4.625 4.625 0 0 0 1.852.358c1.083.203 1.313.82-.365.968l-.108.03a4.414 4.414 0 0 1-1.868-.328c-1.864-.775-3.302-2.712-2.658-4.39.081-.205.152-.415.21-.627-.177 1.592 1.204 3.267 2.937 3.989Z"/><path fill="#13120D" d="M92.8 12.96c.601-1.684 2.938-2.9 5.528-1.527-2.796-3.736-5.99-2.597-6.64-.771-.617 1.737.328 4.176 1.093 5.716-.27-1.195-.342-2.403.02-3.418Z"/><defs><radialGradient id="a" cx="0" cy="0" r="1" gradientTransform="matrix(39.7729 0 0 39.7842 115.505 29.213)" gradientUnits="userSpaceOnUse"><stop stop-color="#fff"/><stop offset=".27" stop-color="#FDFEFF"/><stop offset=".41" stop-color="#F5FBFE"/><stop offset=".52" stop-color="#E8F6FC"/><stop offset=".61" stop-color="#D5EFFA"/><stop offset=".69" stop-color="#BCE6F7"/><stop offset=".77" stop-color="#9EDBF4"/><stop offset=".84" stop-color="#7ACEF0"/><stop offset=".9" stop-color="#50BFEB"/><stop offset=".96" stop-color="#23AEE6"/><stop offset="1" stop-color="#00A1E2"/></radialGradient><radialGradient id="b" cx="0" cy="0" r="1" gradientTransform="rotate(-19.13 127.38 -263.4) scale(15.2033 17.8446)" gradientUnits="userSpaceOnUse"><stop stop-color="#fff"/><stop offset=".27" stop-color="#FDFEFF"/><stop offset=".41" stop-color="#F5FBFE"/><stop offset=".52" stop-color="#E8F6FC"/><stop offset=".61" stop-color="#D5EFFA"/><stop offset=".69" stop-color="#BCE6F7"/><stop offset=".77" stop-color="#9EDBF4"/><stop offset=".84" stop-color="#7ACEF0"/><stop offset=".9" stop-color="#50BFEB"/><stop offset=".96" stop-color="#23AEE6"/><stop offset="1" stop-color="#00A1E2"/></radialGradient></defs></svg>