<svg width="129" height="111" viewBox="0 0 129 111" fill="none" xmlns="http://www.w3.org/2000/svg">
<path d="M70.2531 41.6503C72.5792 44.0242 76.9006 45.0703 79.1784 45.3559C79.3394 45.3761 79.3961 45.5849 79.2654 45.681L73.2722 50.0888C73.2527 50.1031 73.2302 50.1134 73.2066 50.1187C68.7692 51.1062 64.6321 46.7015 62.9905 44.1993C62.928 44.1039 62.9746 43.9774 63.0829 43.9412L70.0683 41.6052C70.1335 41.5835 70.205 41.6013 70.2531 41.6503Z" stroke="black" stroke-width="0.772763" stroke-linecap="round"/>
<path d="M66.8218 45.2657C67.5278 45.1195 69.0635 44.6641 69.5577 44.0123" stroke="black" stroke-width="0.772763" stroke-linecap="round"/>
<path d="M68.8076 46.8497C69.2489 46.8644 70.2639 46.6473 70.7934 45.6617" stroke="black" stroke-width="0.772763" stroke-linecap="round"/>
<path d="M70.9697 47.9058C71.6317 47.8178 73.0526 47.3162 73.4409 46.0137" stroke="black" stroke-width="0.772763" stroke-linecap="round"/>
<path d="M109.125 14.8038C108.759 10.6831 110.547 8.51557 111.487 7.94698C108.446 9.65601 105.449 8.54523 104.331 7.77626L103.988 9.60734C101.905 9.81696 101.408 7.00059 101.42 5.56623C101.439 3.35319 103.895 0.620626 108.779 1.71639C113.663 2.81216 116.343 6.84073 117.073 8.71807C120.57 7.75936 124.327 10.3683 125.768 11.7926C127.258 13.2711 130.395 17.7407 128.192 22.7312C125.22 29.4642 117.314 27.7923 116.024 27.1299C111.565 24.8417 109.583 19.9548 109.125 14.8038Z" fill="black"/>
<path d="M102.442 14.0445C102.546 14.7439 102.806 15.3418 103.13 15.7439C103.458 16.1507 103.822 16.3245 104.142 16.2771C104.463 16.2298 104.76 15.9585 104.955 15.4743C105.149 14.9957 105.223 14.3485 105.12 13.649C105.016 12.9496 104.756 12.3517 104.432 11.9496C104.104 11.5427 103.74 11.3689 103.42 11.4163C103.099 11.4637 102.802 11.7349 102.607 12.2191C102.413 12.6977 102.339 13.345 102.442 14.0445Z" stroke="black" stroke-width="0.772763"/>
<path d="M103.76 14.6462C103.534 14.6794 103.302 14.3781 103.242 13.973C103.182 13.568 103.316 13.2125 103.542 13.1792C103.767 13.1458 103.999 13.4472 104.059 13.8523C104.12 14.2574 103.985 14.6128 103.76 14.6462Z" fill="black"/>
<path d="M109.113 14.4588L105.293 14.1134" stroke="black" stroke-width="0.772763" stroke-linecap="round"/>
<path d="M103.568 9.67938C103.238 10.3416 102.264 11.7889 101.248 12.5989C100.209 13.4274 100.121 14.4834 100.784 15.2443L101.819 16.4413C101.248 20.7944 102.089 24.0178 107.44 25.5184" stroke="black" stroke-width="0.772763" stroke-linecap="round"/>
<path d="M107.504 18.4293C107.377 18.4479 107.259 18.3609 107.241 18.2348C107.222 18.1088 107.309 17.9914 107.436 17.9727C107.562 17.9541 107.68 18.0411 107.699 18.1672C107.717 18.2932 107.63 18.4106 107.504 18.4293Z" fill="black"/>
<path d="M108.333 20.5462C108.181 20.5686 108.043 20.4846 108.024 20.3585C108.005 20.2324 108.113 20.1121 108.265 20.0896C108.417 20.0672 108.555 20.1512 108.574 20.2773C108.592 20.4034 108.484 20.5237 108.333 20.5462Z" fill="black"/>
<path d="M106.315 20.1913C106.163 20.2137 106.025 20.1297 106.006 20.0036C105.987 19.8775 106.095 19.7571 106.247 19.7347C106.399 19.7123 106.537 19.7963 106.556 19.9224C106.574 20.0484 106.466 20.1688 106.315 20.1913Z" fill="black"/>
<path d="M42.0454 33.8855L43.7584 32.0712C44.0683 31.7279 44.8743 31.3552 45.6182 32.6106C46.3621 33.8659 46.0913 35.1932 45.8629 35.6999" stroke="black" stroke-width="0.772763" stroke-linecap="round"/>
<path d="M51.0917 30.8597C51.2616 30.6309 51.3519 30.4298 51.3838 30.2904C51.5469 30.0058 51.6443 29.349 50.6991 29.1046C49.2317 28.7251 49.4763 29.6264 49.7698 29.6738C50.748 29.7876 51.1565 30.6067 51.0917 30.8597Z" stroke="black" stroke-width="0.772763" stroke-linecap="round"/>
<path d="M46.1055 34.7318C46.2522 34.2289 46.9958 33.0623 48.7961 32.4186C50.0087 31.9851 50.6975 31.3599 51.0479 30.8597" stroke="black" stroke-width="0.772763" stroke-linecap="round"/>
<path d="M48.7529 31.0162C48.3081 30.7799 47.1912 30.5059 46.2817 31.2997" stroke="black" stroke-width="0.772763" stroke-linecap="round"/>
<path d="M50.1654 31.0357C49.7305 30.2672 48.6097 28.9508 47.606 29.8329" stroke="black" stroke-width="0.772763" stroke-linecap="round"/>
<path d="M45.1348 31.2997C45.5357 30.1253 46.3878 28.5933 49.1946 28.3956" stroke="black" stroke-width="0.772763" stroke-linecap="round"/>
<path d="M91.5883 31.6312C91.3852 31.3485 91.2831 31.0911 91.3757 30.9133C91.645 30.3965 92.3072 30.9269 92.6046 31.2568C93.3448 32.0503 94.7695 33.4296 94.3855 31.8246C94.0015 30.2195 94.8182 30.3183 96.7305 32.2775L98.6313 33.4301" stroke="black" stroke-width="0.772763" stroke-linecap="round"/>
<path d="M91.7436 34.1478C91.5798 34.6498 91.8425 35.8116 94.2496 36.0931C95.1604 36.1996 95.2972 36.1847 96.152 36.1128H97.6162" stroke="black" stroke-width="0.772763" stroke-linecap="round"/>
<path d="M93.2031 33.1435C92.7302 32.796 91.9758 32.1651 91.5886 31.6262C91.1682 31.6213 90.761 31.8576 91.4099 32.6834C91.6908 33.041 92.1697 33.509 92.9312 34.1159" stroke="black" stroke-width="0.772763" stroke-linecap="round"/>
<path d="M92.9307 34.121C92.1692 33.5141 91.6903 33.0461 91.4094 32.6885C91.0082 32.8013 90.6474 33.2373 91.7435 34.1478C91.9832 34.3469 92.2926 34.5687 92.6865 34.8148" stroke="black" stroke-width="0.772763" stroke-linecap="round"/>
<path d="M116.005 28.0104C122.489 32.7263 121.713 38.6072 121.713 45.8751" stroke="black" stroke-width="0.772763" stroke-linecap="round"/>
<path d="M115.829 28.0904L112.716 30.8063C112.615 30.8946 112.456 30.8423 112.427 30.7114L111.616 27.0112C111.586 26.874 111.415 26.8254 111.317 26.9264L109.209 29.0984" stroke="black" stroke-width="0.772763" stroke-linecap="round"/>
<path d="M109.209 25.8984C109.037 26.2209 108.789 26.7451 108.557 27.3544C108.239 28.1907 107.95 29.1872 107.924 30.0425" stroke="black" stroke-width="0.772763" stroke-linecap="round"/>
<path d="M108.557 27.3544L101.443 31.4426" stroke="black" stroke-width="0.772763" stroke-linecap="round"/>
<path d="M113.093 33.4234C112.03 34.8593 106.043 38.8354 101.735 34.4728L100.56 33.2026" stroke="black" stroke-width="0.772763" stroke-linecap="round"/>
<path d="M110.18 47.4592C108.797 47.1026 102.237 43.5206 100.326 40.1922" stroke="black" stroke-width="0.772763" stroke-linecap="round"/>
<path d="M100.838 35.8654C100.365 37.5614 100.231 38.9932 100.326 40.1922C99.2722 39.471 98.2652 38.9163 98.2652 36.642C98.2652 35.0332 99.4399 33.6464 100.503 33.2026" stroke="black" stroke-width="0.772763" stroke-linecap="round"/>
<path d="M109.651 32.0586C109.407 32.0586 109.209 31.8222 109.209 31.5306C109.209 31.2389 109.407 31.0026 109.651 31.0026C109.894 31.0026 110.092 31.2389 110.092 31.5306C110.092 31.8222 109.894 32.0586 109.651 32.0586Z" fill="black"/>
<path d="M109.033 34.6107C108.789 34.6107 108.592 34.3744 108.592 34.0827C108.592 33.7911 108.789 33.5547 109.033 33.5547C109.277 33.5547 109.474 33.7911 109.474 34.0827C109.474 34.3744 109.277 34.6107 109.033 34.6107Z" fill="black"/>
<path d="M104.345 20.0021C104.402 20.3453 104.254 21.0547 103.208 21.1462" stroke="black" stroke-width="0.772763" stroke-linecap="round"/>
<path d="M74.4593 55.6691L66.1631 56.0211" stroke="black" stroke-width="0.772763" stroke-linecap="round"/>
<path d="M74.5474 55.6691L85.4913 56.6372" stroke="black" stroke-width="0.772763" stroke-linecap="round"/>
<path d="M85.5795 56.6372L83.373 66.8456" stroke="black" stroke-width="0.772763" stroke-linecap="round"/>
<path d="M83.3732 66.8456L74.2827 68.4296" stroke="black" stroke-width="0.772763" stroke-linecap="round"/>
<path d="M74.2827 68.3416V57.5172" stroke="black" stroke-width="0.772763" stroke-linecap="round"/>
<path d="M74.2827 57.6052L85.4914 56.7252" stroke="black" stroke-width="0.772763" stroke-linecap="round"/>
<path d="M74.2828 57.6052L66.1631 56.0212" stroke="black" stroke-width="0.772763" stroke-linecap="round"/>
<path d="M65.9863 56.0212L66.5159 64.1175" stroke="black" stroke-width="0.772763" stroke-linecap="round"/>
<path d="M66.5161 64.1175L74.2828 68.4297" stroke="black" stroke-width="0.772763" stroke-linecap="round"/>
<path d="M74.3711 55.6691V57.4292" stroke="black" stroke-width="0.772763" stroke-linecap="round"/>
<path d="M80.8933 59.9027L79.1101 60.0127C78.6966 60.0382 78.3821 60.3931 78.4076 60.8054L78.424 61.0686C78.4495 61.4809 78.8055 61.7945 79.219 61.769L81.0022 61.659C81.4158 61.6335 81.7303 61.2786 81.7047 60.8663L81.6884 60.6031C81.6628 60.1908 81.3068 59.8772 80.8933 59.9027Z" stroke="black" stroke-width="0.463658"/>
<path d="M74.2191 70.7177L66.2954 64.2495L74.2386 68.6496L83.5938 67.0216L84.4764 67.1536L74.2191 70.7177Z" fill="black"/>
<path d="M102.26 61.1694C100.936 63.4135 102.848 70.9084 104.29 76.4819C104.775 80.0901 100.377 81.3221 99.5238 79.5181C97.568 75.3819 93.787 68.6761 91.6689 62.7974C89.5509 56.9188 97.1849 51.973 103.142 51.973C104.643 51.9583 107.114 52.149 108.923 52.369" stroke="black" stroke-width="0.772763" stroke-linecap="round"/>
<path d="M103.143 49.7289C97.7591 49.2009 86.9566 48.0481 84.8738 62.7974C82.2702 81.2341 83.6823 77.538 86.1535 81.0141C88.1304 83.795 91.3314 71.7591 92.6843 65.3935" stroke="black" stroke-width="0.772763" stroke-linecap="round"/>
<path d="M92.993 31.3802L92.5076 29.7522L85.2266 25.924L89.8159 41.1046L97.0529 43.3487L95.1553 37.9365" stroke="black" stroke-width="0.772763" stroke-linecap="round"/>
<path d="M106.231 86.7784C108.456 85.0887 104.305 85.6637 101.951 86.1623L99.877 86.7784C101.713 88.0812 104.878 87.3209 106.231 86.7784Z" fill="black"/>
<path d="M87.7418 84.0502C88.1998 83.4323 86.1532 83.1262 84.388 83.8067L82.314 84.4462C83.6231 85.0917 86.9916 85.0623 87.7418 84.0502Z" fill="black"/>
<path d="M128.605 43.1287C130.3 51.225 126.134 59.0573 123.839 61.9614C120.873 63.6133 117.932 64.4005 115.19 64.6305C109.286 65.1258 104.306 63.036 101.996 61.4334C101.907 60.4067 103.549 58.6085 110.821 59.6293C116.823 45.8304 125.178 42.8794 128.605 43.1287Z" fill="black"/>
<path d="M83.1084 80.0021C83.0202 80.8674 82.1288 82.5982 79.2692 82.5982C75.6948 82.5982 78.6956 84.6223 81.917 84.4022C84.4941 84.2262 85.3149 83.1262 85.4031 82.5982" stroke="black" stroke-width="0.772763" stroke-linecap="round"/>
<path d="M100.807 82.5296C101.12 83.5847 100.788 84.4531 97.6955 85.6941C93.8298 87.2452 98.9699 87.2003 101.869 86.1167C104.769 85.0335 105.174 84.226 104.037 79.6061" stroke="black" stroke-width="0.772763" stroke-linecap="round"/>
<path d="M114.263 91.751C119.43 91.751 123.618 90.9433 123.618 89.9469C123.618 88.9505 119.43 88.1428 114.263 88.1428C109.096 88.1428 104.908 88.9505 104.908 89.9469C104.908 90.9433 109.096 91.751 114.263 91.751Z" fill="black"/>
<path d="M101.157 44.0967C100.804 44.8594 100.204 46.7984 100.627 48.4528" stroke="black" stroke-width="0.772763" stroke-linecap="round"/>
<path d="M113.204 88.1868V64.0735H115.278V88.1868H113.204Z" fill="black"/>
<path d="M41.0978 36.4372C41.0978 32.5097 40.0646 30.5951 38.6377 28.6804" stroke="black" stroke-width="0.772763" stroke-linecap="round"/>
<path d="M25.0587 52.589C23.8696 45.6668 24.6159 41.1993 25.0587 37.861C25.7435 32.6979 26.9883 30.6097 27.8549 29.2697C28.9373 27.5961 31.3551 26.0842 32.98 26.6677" stroke="black" stroke-width="0.772763" stroke-linecap="round"/>
<path d="M38.4668 26.762C39.3262 26.2346 45.7913 26.743 47.0482 18.634C49.2001 18.6592 50.3702 16.9015 48.7282 16.1494C46.9779 15.2494 47.1093 13.597 47.4264 12.6234C47.9305 11.3466 47.961 10.0061 47.8523 9.72571" stroke="black" stroke-width="0.772763" stroke-linecap="round"/>
<path d="M45.0474 16.0579C45.3217 16.0496 45.5334 15.6954 45.5203 15.2668C45.5073 14.8382 45.2743 14.4975 45 14.5059C44.7258 14.5142 44.514 14.8684 44.5271 15.2969C44.5402 15.7255 44.7731 16.0662 45.0474 16.0579Z" fill="black"/>
<path d="M43.1436 14.5403C43.1549 14.0163 43.4719 12.9818 44.6487 13.0345" stroke="black" stroke-width="0.772763" stroke-linecap="round"/>
<path d="M41.0923 20.6081C41.7522 21.6206 42.4766 21.9081 43.8838 21.2547" stroke="black" stroke-width="0.772763" stroke-linecap="round"/>
<path d="M36.1102 13.3842C35.9573 13.7189 35.8292 14.4788 36.5399 14.8405" stroke="black" stroke-width="0.772763" stroke-linecap="round"/>
<path d="M28.5364 9.94658C27.6992 14.5141 30.3189 17.9523 32.218 20.5955C34.2462 19.5028 37.5706 16.9045 36.2957 16.624C34.9556 16.3293 33.5421 12.6845 34.8435 11.5695C36.3704 10.2614 37.7467 12.2407 38.0089 13.7414L39.2387 11.6208C38.891 10.1376 38.7546 7.53588 40.991 8.99447C43.2276 10.453 46.5081 10.0709 47.8688 9.69753C50.5518 7.78267 54.7202 3.3161 49.93 0.768961C45.9458 -1.34957 40.7612 1.32882 37.5965 3.7355C35.4537 3.17143 29.6779 3.71902 28.5364 9.94658Z" fill="black"/>
<path d="M32.3672 20.2894C33.3357 21.4521 33.8168 22.4175 33.757 24.4175" stroke="black" stroke-width="0.772763" stroke-linecap="round"/>
<path d="M56.0125 36.0835C56.0015 36.5175 55.4951 37.5554 53.5578 38.2346C51.6206 38.9139 50.4143 38.6146 50.0532 38.3801" stroke="black" stroke-width="0.772763" stroke-linecap="round"/>
<path d="M56.942 34.4031C57.2847 34.5492 57.6546 35.0434 56.3928 35.852L56.0126 36.0835L55.3516 36.486" stroke="black" stroke-width="0.772763" stroke-linecap="round"/>
<path d="M54.269 34.9175C54.83 34.6429 55.7807 34.0716 56.1201 33.5343C56.4351 33.3549 57.0974 33.1545 57.2266 33.788C57.2656 33.9792 57.1479 34.1909 56.9421 34.4032C56.4659 34.8942 55.5183 35.3876 54.951 35.6326" stroke="black" stroke-width="0.772763" stroke-linecap="round"/>
<path d="M49.1909 36.2418C49.3224 35.4731 49.6209 33.9004 50.4263 33.2025C50.6345 33.0309 51.0334 32.5999 50.9626 32.2493C50.8742 31.8111 51.8497 31.6345 51.8569 32.6377C51.8641 33.641 51.116 33.8638 51.8715 34.1637C52.4759 34.4037 54.27 33.38 55.0914 32.8382C55.3729 32.6358 55.993 32.3902 56.2209 33.0267C56.2774 33.1843 56.2319 33.3575 56.1202 33.5343C55.7808 34.0716 54.8301 34.6429 54.2692 34.9176" stroke="black" stroke-width="0.772763" stroke-linecap="round"/>
<path d="M36.0493 31.6442C36.9553 38.5626 39.2173 39.1847 40.235 38.631C42.2703 37.7027 46.7546 36.1783 48.4092 37.5073C50.0638 38.8362 48.081 40.6342 46.8827 41.3671C42.9105 44.1846 34.2864 48.8034 31.5682 44.7383C28.8501 40.6733 28.663 35.5529 28.9091 33.5008" stroke="black" stroke-width="0.772763" stroke-linecap="round"/>
<path d="M33.0685 26.741C32.8114 25.8468 32.6607 24.1414 34.1147 24.4729C35.932 24.8872 39.5819 27.57 39.3106 28.5633" stroke="black" stroke-width="0.772763" stroke-linecap="round"/>
<path d="M40.7448 52.941L35.1846 53.9091C44.0103 53.161 46.4142 53.6215 47.5406 56.3731C48.667 59.1247 47.8054 67.5055 46.658 74.7217C46.0046 79.6147 49.747 80.706 51.2915 79.8259C52.5223 79.7334 55.1269 78.9944 54.0339 75.5396C55.4921 71.8538 56.3987 67.5597 57.1583 64.7927C61.939 53.1292 45.7518 52.776 45.5116 52.765C45.5113 52.765 45.511 52.765 45.5107 52.765C43.6131 52.6737 42.6423 52.677 40.7448 52.941Z" fill="black"/>
<path d="M51.817 82.3342C50.8285 81.8413 51.9347 81.7181 52.6113 81.7181C53.2468 82.5278 55.1453 82.7155 55.9691 82.6422C55.0865 83.1262 53.0526 82.9502 51.817 82.3342Z" fill="black"/>
<path d="M54.1906 79.4301C54.2529 80.0335 54.882 81.2405 56.9 81.2405C59.4226 81.2405 57.305 82.6519 55.0316 82.4986C53.2128 82.3758 52.6335 81.6087 52.5713 81.2405" stroke="black" stroke-width="0.772763" stroke-linecap="round"/>
<path d="M46.6143 85.6343C43.4784 84.9786 46.0557 84.6515 47.4972 84.4022C49.8802 85.5903 51.7925 85.7223 52.7928 85.8103C51.9396 86.3383 49.35 86.2063 46.6143 85.6343Z" fill="black"/>
<path d="M50.6334 81.598C50.3329 82.6128 50.652 83.448 53.6266 84.6416C57.3448 86.1335 52.4011 86.09 49.6117 85.0481C48.7301 84.7449 46.914 84.059 46.7021 83.7422" stroke="black" stroke-width="0.772763" stroke-linecap="round"/>
<path d="M8.35791 29.6948C8.6656 28.7019 10.9667 26.3552 17.7096 24.9119C20.4014 24.3358 22.4578 29.0305 24.8584 38.4645" stroke="black" stroke-width="0.772763" stroke-linecap="round"/>
<path d="M8.35786 29.6949C8.71192 28.8096 9.60204 28.4487 11.1523 27.8774C13.2582 27.1015 14.6487 28.8474 15.0807 29.8173C16.8221 33.9395 20.8721 43.6063 23.14 49.2965C25.408 54.9867 28.5211 54.4693 31.7258 54.4693C46.7914 52.772 46.6699 54.4694 47.6418 57.2579C48.3816 59.3802 47.3178 69.9072 46.6699 74.8376C42.62 75.2903 23.7324 74.7568 18.0626 74.8376C8.3023 56.7729 8.92485 35.9197 8.35786 32.5654C8.12478 31.1865 8.11071 30.3129 8.35786 29.6949Z" stroke="black" stroke-width="0.772763" stroke-linecap="round"/>
<path d="M40.4225 45.8128C39.7753 47.2818 39.4808 50.6407 43.4806 52.3251" stroke="black" stroke-width="0.772763" stroke-linecap="round"/>
<path d="M45.9453 76.614C46.2514 79.4487 46.3943 84.9757 44.5165 84.4053C42.6386 83.835 41.4548 79.3808 41.0977 77.2251" stroke="black" stroke-width="0.772763" stroke-linecap="round"/>
<path d="M18.058 76.4379C17.7999 79.9116 18.0579 84.4371 20.0232 84.8774C21.2881 85.1607 23.0009 78.5906 23.3583 76.4379" stroke="black" stroke-width="0.772763" stroke-linecap="round"/>
<path d="M22.7402 79.1778C23.3695 82.3419 26.0582 83.9549 25.6006 76.2619" stroke="black" stroke-width="0.772763" stroke-linecap="round"/>
<path d="M13.3002 109.3C12.4882 107.892 15.0801 107.687 16.4775 107.76V108.772L21.0227 109.3C18.7869 109.887 14.1122 110.708 13.3002 109.3Z" fill="black"/>
<path d="M23.2728 107.408L21.5518 109.168" stroke="black" stroke-width="0.772763" stroke-linecap="round"/>
<path d="M21.1547 103.8L16.6978 103.492" stroke="black" stroke-width="0.772763" stroke-linecap="round"/>
<path d="M18.5073 102.348L23.2732 102.568" stroke="black" stroke-width="0.772763" stroke-linecap="round"/>
<path d="M16.6098 103.492L16.3892 108.596" stroke="black" stroke-width="0.772763" stroke-linecap="round"/>
<path d="M23.2729 102.656V107.32" stroke="black" stroke-width="0.772763" stroke-linecap="round"/>
<path d="M21.5518 105.428V109.168" stroke="black" stroke-width="0.772763" stroke-linecap="round"/>
<path d="M16.6094 103.492L18.5069 102.348" stroke="black" stroke-width="0.772763" stroke-linecap="round"/>
<path d="M21.5519 109.168L16.3447 108.64" stroke="black" stroke-width="0.772763" stroke-linecap="round"/>
<path d="M0.878134 101.248C0.922263 100.016 5.86467 100.412 6.17357 100.456V101.248L7.67395 102.304C5.39397 102.363 0.842831 102.233 0.878134 101.248Z" fill="black"/>
<path d="M13.146 101.116V96.6276" stroke="black" stroke-width="0.772763" stroke-linecap="round"/>
<path d="M9.30664 102.26V97.3317" stroke="black" stroke-width="0.772763" stroke-linecap="round"/>
<path d="M6.12939 101.116V96.1876" stroke="black" stroke-width="0.772763" stroke-linecap="round"/>
<path d="M6.12939 96.1876L9.61556 95.3076" stroke="black" stroke-width="0.772763" stroke-linecap="round"/>
<path d="M13.1458 96.5836L9.30664 97.2876" stroke="black" stroke-width="0.772763" stroke-linecap="round"/>
<path d="M9.30664 102.304L13.1458 101.16" stroke="black" stroke-width="0.772763" stroke-linecap="round"/>
<path d="M13.146 96.5837L9.61572 95.3076" stroke="black" stroke-width="0.772763" stroke-linecap="round"/>
<path d="M6.12939 96.2316L9.35079 97.2877" stroke="black" stroke-width="0.772763" stroke-linecap="round"/>
<path d="M21.0007 97.1117C21.0448 95.8796 25.9872 96.2757 26.2961 96.3197V97.1117L27.7965 98.1677C25.5165 98.2264 20.9654 98.0973 21.0007 97.1117Z" fill="black"/>
<path d="M33.2686 96.9796V92.4915" stroke="black" stroke-width="0.772763" stroke-linecap="round"/>
<path d="M29.4297 98.1237V93.1955" stroke="black" stroke-width="0.772763" stroke-linecap="round"/>
<path d="M26.2524 96.9796V92.0515" stroke="black" stroke-width="0.772763" stroke-linecap="round"/>
<path d="M29.4297 98.1677L33.2689 97.0237" stroke="black" stroke-width="0.772763" stroke-linecap="round"/>
<path d="M33.2689 92.4475L29.4297 93.1515" stroke="black" stroke-width="0.772763" stroke-linecap="round"/>
<path d="M26.2524 92.0515L29.7386 91.1714" stroke="black" stroke-width="0.772763" stroke-linecap="round"/>
<path d="M33.2686 92.4475L29.7383 91.1714" stroke="black" stroke-width="0.772763" stroke-linecap="round"/>
<path d="M26.2524 92.0955L29.4738 93.1515" stroke="black" stroke-width="0.772763" stroke-linecap="round"/>
<path d="M31.8373 88.0363L30.1196 90.7191C30.0139 90.8843 30.0867 91.105 30.27 91.1747L33.0244 92.2227C33.1653 92.2763 33.3243 92.2204 33.4007 92.0905L35.0221 89.3347C35.1199 89.1685 35.0432 88.9542 34.8621 88.8878L32.204 87.9128C32.0679 87.8629 31.9154 87.9142 31.8373 88.0363Z" stroke="black" stroke-width="0.772763"/>
<path d="M26.7852 87.3873L27.4912 88.9714" stroke="black" stroke-width="0.772763" stroke-linecap="round"/>
<path d="M24.314 88.2673L26.6087 90.2034" stroke="black" stroke-width="0.772763" stroke-linecap="round"/>
<path d="M24.2261 90.8195L25.6382 91.6115" stroke="black" stroke-width="0.772763" stroke-linecap="round"/>
</svg>
